<?xml version="1.0" encoding="UTF-8" standalone="no"?>
<!DOCTYPE svg PUBLIC "-//W3C//DTD SVG 1.1//EN"
 "http://www.w3.org/Graphics/SVG/1.1/DTD/svg11.dtd">
<!-- Generated by graphviz version 2.40.1 (20161225.0304)
 -->
<!-- Title: xfce_systemd Pages: 1 -->
<svg width="1307pt" height="548pt"
 viewBox="0.00 0.00 1306.55 548.00" xmlns="http://www.w3.org/2000/svg" xmlns:xlink="http://www.w3.org/1999/xlink">
<g id="graph0" class="graph" transform="scale(1 1) rotate(0) translate(4 544)">
<title>xfce_systemd</title>
<polygon fill="#ffffff" stroke="transparent" points="-4,4 -4,-544 1302.5489,-544 1302.5489,4 -4,4"/>
<!-- xfce_pre_target -->
<g id="node1" class="node">
<title>xfce_pre_target</title>
<polygon fill="none" stroke="#000000" points="589.5051,-396 484.5051,-396 484.5051,-360 589.5051,-360 589.5051,-396"/>
<text text-anchor="middle" x="537.0051" y="-374.3" font-family="Times,serif" font-size="14.00" fill="#000000">xfce_pre_target</text>
</g>
<!-- xfce_init_target -->
<g id="node2" class="node">
<title>xfce_init_target</title>
<polygon fill="none" stroke="#000000" points="549.0051,-180 443.0051,-180 443.0051,-144 549.0051,-144 549.0051,-180"/>
<text text-anchor="middle" x="496.0051" y="-158.3" font-family="Times,serif" font-size="14.00" fill="#000000">xfce_init_target</text>
</g>
<!-- xfce_pre_target&#45;&gt;xfce_init_target -->
<g id="edge1" class="edge">
<title>xfce_pre_target&#45;&gt;xfce_init_target</title>
<path fill="none" stroke="#c0c0c0" d="M484.2072,-367.3631C442.1033,-357.6827 388.0926,-342.158 375.0051,-324 362.1607,-306.1794 374.6042,-230.3248 385.0051,-216 396.9612,-199.5332 415.3197,-187.8527 433.6859,-179.6734"/>
<polygon fill="#c0c0c0" stroke="#c0c0c0" points="435.071,-182.8881 442.9647,-175.8213 432.387,-176.423 435.071,-182.8881"/>
</g>
<!-- xfce4_session_service -->
<g id="node9" class="node">
<title>xfce4_session_service</title>
<ellipse fill="none" stroke="#000000" cx="477.0051" cy="-306" rx="92.8835" ry="18"/>
<text text-anchor="middle" x="477.0051" y="-302.3" font-family="Times,serif" font-size="14.00" fill="#000000">xfce4_session_service</text>
</g>
<!-- xfce_pre_target&#45;&gt;xfce4_session_service -->
<g id="edge20" class="edge">
<title>xfce_pre_target&#45;&gt;xfce4_session_service</title>
<path fill="none" stroke="#00ff00" d="M521.8645,-359.8314C514.776,-351.3251 506.2067,-341.0419 498.4651,-331.752"/>
<polygon fill="#00ff00" stroke="#00ff00" points="501.0236,-329.355 491.9329,-323.9134 495.646,-333.8363 501.0236,-329.355"/>
</g>
<!-- xfce4_session_set_SESSIONMANAGER_var_service -->
<g id="node10" class="node">
<title>xfce4_session_set_SESSIONMANAGER_var_service</title>
<ellipse fill="none" stroke="#000000" cx="618.0051" cy="-234" rx="215.2619" ry="18"/>
<text text-anchor="middle" x="618.0051" y="-230.3" font-family="Times,serif" font-size="14.00" fill="#000000">xfce4_session_set_SESSIONMANAGER_var_service</text>
</g>
<!-- xfce_pre_target&#45;&gt;xfce4_session_set_SESSIONMANAGER_var_service -->
<g id="edge21" class="edge">
<title>xfce_pre_target&#45;&gt;xfce4_session_set_SESSIONMANAGER_var_service</title>
<path fill="none" stroke="#00ff00" d="M553.0005,-359.8401C561.4082,-349.7349 571.4968,-336.6696 579.0051,-324 590.7986,-304.0993 601.0575,-279.9768 608.0896,-261.7165"/>
<polygon fill="#00ff00" stroke="#00ff00" points="611.4097,-262.8311 611.6536,-252.2391 604.8576,-260.3672 611.4097,-262.8311"/>
</g>
<!-- xfsettingsd_service -->
<g id="node11" class="node">
<title>xfsettingsd_service</title>
<ellipse fill="none" stroke="#000000" cx="707.0051" cy="-306" rx="81.4863" ry="18"/>
<text text-anchor="middle" x="707.0051" y="-302.3" font-family="Times,serif" font-size="14.00" fill="#000000">xfsettingsd_service</text>
</g>
<!-- xfce_pre_target&#45;&gt;xfsettingsd_service -->
<g id="edge22" class="edge">
<title>xfce_pre_target&#45;&gt;xfsettingsd_service</title>
<path fill="none" stroke="#00ff00" d="M579.9032,-359.8314C604.3246,-349.4882 634.9491,-336.5178 660.018,-325.9004"/>
<polygon fill="#00ff00" stroke="#00ff00" points="661.4861,-329.0797 669.3293,-321.9568 658.7561,-322.6339 661.4861,-329.0797"/>
</g>
<!-- xfce_target -->
<g id="node3" class="node">
<title>xfce_target</title>
<polygon fill="none" stroke="#000000" points="536.0051,-36 456.0051,-36 456.0051,0 536.0051,0 536.0051,-36"/>
<text text-anchor="middle" x="496.0051" y="-14.3" font-family="Times,serif" font-size="14.00" fill="#000000">xfce_target</text>
</g>
<!-- xfce_init_target&#45;&gt;xfce_target -->
<g id="edge2" class="edge">
<title>xfce_init_target&#45;&gt;xfce_target</title>
<path fill="none" stroke="#c0c0c0" d="M442.9649,-160.0493C322.5374,-155.0755 36.6494,-139.9888 8.0051,-108 -2.6684,-96.0804 -2.6684,-83.9196 8.0051,-72 36.8452,-39.7926 326.4566,-24.7191 445.4104,-19.8502"/>
<polygon fill="#c0c0c0" stroke="#c0c0c0" points="445.8511,-23.3354 455.7027,-19.437 445.5703,-16.341 445.8511,-23.3354"/>
</g>
<!-- xfwm4_service -->
<g id="node12" class="node">
<title>xfwm4_service</title>
<ellipse fill="none" stroke="#000000" cx="85.0051" cy="-90" rx="67.6881" ry="18"/>
<text text-anchor="middle" x="85.0051" y="-86.3" font-family="Times,serif" font-size="14.00" fill="#000000">xfwm4_service</text>
</g>
<!-- xfce_init_target&#45;&gt;xfwm4_service -->
<g id="edge23" class="edge">
<title>xfce_init_target&#45;&gt;xfwm4_service</title>
<path fill="none" stroke="#00ff00" d="M442.8723,-154.5712C376.8062,-145.0674 260.69,-127.4878 162.0051,-108 156.5335,-106.9195 150.8595,-105.7287 145.185,-104.4897"/>
<polygon fill="#00ff00" stroke="#00ff00" points="145.5362,-100.9821 135.0141,-102.221 144.0122,-107.8142 145.5362,-100.9821"/>
</g>
<!-- thunar_service -->
<g id="node13" class="node">
<title>thunar_service</title>
<ellipse fill="none" stroke="#000000" cx="236.0051" cy="-90" rx="64.9885" ry="18"/>
<text text-anchor="middle" x="236.0051" y="-86.3" font-family="Times,serif" font-size="14.00" fill="#000000">thunar_service</text>
</g>
<!-- xfce_init_target&#45;&gt;thunar_service -->
<g id="edge24" class="edge">
<title>xfce_init_target&#45;&gt;thunar_service</title>
<path fill="none" stroke="#00ff00" d="M442.7628,-147.256C398.8403,-135.0928 336.7049,-117.8861 292.0342,-105.5158"/>
<polygon fill="#00ff00" stroke="#00ff00" points="292.7854,-102.0921 282.214,-102.7963 290.9172,-108.8382 292.7854,-102.0921"/>
</g>
<!-- xfce4_panel_service -->
<g id="node14" class="node">
<title>xfce4_panel_service</title>
<ellipse fill="none" stroke="#000000" cx="405.0051" cy="-90" rx="86.3847" ry="18"/>
<text text-anchor="middle" x="405.0051" y="-86.3" font-family="Times,serif" font-size="14.00" fill="#000000">xfce4_panel_service</text>
</g>
<!-- xfce_init_target&#45;&gt;xfce4_panel_service -->
<g id="edge25" class="edge">
<title>xfce_init_target&#45;&gt;xfce4_panel_service</title>
<path fill="none" stroke="#00ff00" d="M473.0419,-143.8314C461.4666,-134.6729 447.2879,-123.4545 434.8756,-113.6338"/>
<polygon fill="#00ff00" stroke="#00ff00" points="437.033,-110.8778 427.0191,-107.4177 432.6896,-116.3674 437.033,-110.8778"/>
</g>
<!-- xfdesktop_service -->
<g id="node15" class="node">
<title>xfdesktop_service</title>
<ellipse fill="none" stroke="#000000" cx="587.0051" cy="-90" rx="77.9862" ry="18"/>
<text text-anchor="middle" x="587.0051" y="-86.3" font-family="Times,serif" font-size="14.00" fill="#000000">xfdesktop_service</text>
</g>
<!-- xfce_init_target&#45;&gt;xfdesktop_service -->
<g id="edge26" class="edge">
<title>xfce_init_target&#45;&gt;xfdesktop_service</title>
<path fill="none" stroke="#00ff00" d="M518.9682,-143.8314C530.5435,-134.6729 544.7222,-123.4545 557.1346,-113.6338"/>
<polygon fill="#00ff00" stroke="#00ff00" points="559.3205,-116.3674 564.991,-107.4177 554.9771,-110.8778 559.3205,-116.3674"/>
</g>
<!-- xfce4_notifyd_service -->
<g id="node16" class="node">
<title>xfce4_notifyd_service</title>
<ellipse fill="none" stroke="#000000" cx="777.0051" cy="-90" rx="93.6835" ry="18"/>
<text text-anchor="middle" x="777.0051" y="-86.3" font-family="Times,serif" font-size="14.00" fill="#000000">xfce4_notifyd_service</text>
</g>
<!-- xfce_init_target&#45;&gt;xfce4_notifyd_service -->
<g id="edge27" class="edge">
<title>xfce_init_target&#45;&gt;xfce4_notifyd_service</title>
<path fill="none" stroke="#00ff00" d="M549.1894,-148.3727C595.037,-136.6253 661.4361,-119.612 710.7329,-106.9808"/>
<polygon fill="#00ff00" stroke="#00ff00" points="711.8474,-110.3083 720.6657,-104.4357 710.1099,-103.5274 711.8474,-110.3083"/>
</g>
<!-- xfce4_power_manager_service -->
<g id="node17" class="node">
<title>xfce4_power_manager_service</title>
<ellipse fill="none" stroke="#000000" cx="1015.0051" cy="-90" rx="126.1777" ry="18"/>
<text text-anchor="middle" x="1015.0051" y="-86.3" font-family="Times,serif" font-size="14.00" fill="#000000">xfce4_power_manager_service</text>
</g>
<!-- xfce_init_target&#45;&gt;xfce4_power_manager_service -->
<g id="edge28" class="edge">
<title>xfce_init_target&#45;&gt;xfce4_power_manager_service</title>
<path fill="none" stroke="#00ff00" d="M549.1081,-154.6331C634.7893,-142.7467 804.9503,-119.1405 914.1982,-103.9848"/>
<polygon fill="#00ff00" stroke="#00ff00" points="914.8232,-107.4317 924.2474,-102.5907 913.8613,-100.4981 914.8232,-107.4317"/>
</g>
<!-- tumbler_service -->
<g id="node18" class="node">
<title>tumbler_service</title>
<ellipse fill="none" stroke="#000000" cx="1229.0051" cy="-90" rx="69.5877" ry="18"/>
<text text-anchor="middle" x="1229.0051" y="-86.3" font-family="Times,serif" font-size="14.00" fill="#000000">tumbler_service</text>
</g>
<!-- xfce_init_target&#45;&gt;tumbler_service -->
<g id="edge29" class="edge">
<title>xfce_init_target&#45;&gt;tumbler_service</title>
<path fill="none" stroke="#00ff00" d="M549.2873,-160.1582C661.1595,-155.7305 928.4771,-142.2068 1150.0051,-108 1156.1176,-107.0561 1162.4609,-105.9055 1168.7753,-104.647"/>
<polygon fill="#00ff00" stroke="#00ff00" points="1169.5598,-108.0588 1178.637,-102.5947 1168.1336,-101.2056 1169.5598,-108.0588"/>
</g>
<!-- xfconfd_service -->
<g id="node4" class="node">
<title>xfconfd_service</title>
<ellipse fill="none" stroke="#000000" cx="268.0051" cy="-522" rx="70.3881" ry="18"/>
<text text-anchor="middle" x="268.0051" y="-518.3" font-family="Times,serif" font-size="14.00" fill="#000000">xfconfd_service</text>
</g>
<!-- xfconfd_service&#45;&gt;xfce_pre_target -->
<g id="edge3" class="edge">
<title>xfconfd_service&#45;&gt;xfce_pre_target</title>
<path fill="none" stroke="#c0c0c0" d="M247.6665,-504.7433C227.5007,-485.5683 202.1371,-454.3657 221.0051,-432 237.1436,-412.8697 386.6165,-393.9626 474.0816,-384.4099"/>
<polygon fill="#c0c0c0" stroke="#c0c0c0" points="474.6012,-387.8742 484.1671,-383.3198 473.8489,-380.9147 474.6012,-387.8742"/>
</g>
<!-- xfce_syndaemon_service -->
<g id="node8" class="node">
<title>xfce_syndaemon_service</title>
<ellipse fill="none" stroke="#000000" cx="335.0051" cy="-450" rx="104.7816" ry="18"/>
<text text-anchor="middle" x="335.0051" y="-446.3" font-family="Times,serif" font-size="14.00" fill="#000000">xfce_syndaemon_service</text>
</g>
<!-- xfconfd_service&#45;&gt;xfce_syndaemon_service -->
<g id="edge30" class="edge">
<title>xfconfd_service&#45;&gt;xfce_syndaemon_service</title>
<path fill="none" stroke="#00ff00" d="M284.5669,-504.2022C292.7004,-495.4617 302.6416,-484.7786 311.5416,-475.2144"/>
<polygon fill="#00ff00" stroke="#00ff00" points="314.1515,-477.5476 318.4016,-467.8425 309.027,-472.7789 314.1515,-477.5476"/>
</g>
<!-- xmodmap_service -->
<g id="node5" class="node">
<title>xmodmap_service</title>
<ellipse fill="none" stroke="#000000" cx="537.0051" cy="-450" rx="79.0865" ry="18"/>
<text text-anchor="middle" x="537.0051" y="-446.3" font-family="Times,serif" font-size="14.00" fill="#000000">xmodmap_service</text>
</g>
<!-- xmodmap_service&#45;&gt;xfce_pre_target -->
<g id="edge4" class="edge">
<title>xmodmap_service&#45;&gt;xfce_pre_target</title>
<path fill="none" stroke="#c0c0c0" d="M537.0051,-431.8314C537.0051,-424.131 537.0051,-414.9743 537.0051,-406.4166"/>
<polygon fill="#c0c0c0" stroke="#c0c0c0" points="540.5052,-406.4132 537.0051,-396.4133 533.5052,-406.4133 540.5052,-406.4132"/>
</g>
<!-- xdg_user_dirs_update_service -->
<g id="node6" class="node">
<title>xdg_user_dirs_update_service</title>
<ellipse fill="none" stroke="#000000" cx="758.0051" cy="-450" rx="124.2781" ry="18"/>
<text text-anchor="middle" x="758.0051" y="-446.3" font-family="Times,serif" font-size="14.00" fill="#000000">xdg_user_dirs_update_service</text>
</g>
<!-- xdg_user_dirs_update_service&#45;&gt;xfce_pre_target -->
<g id="edge5" class="edge">
<title>xdg_user_dirs_update_service&#45;&gt;xfce_pre_target</title>
<path fill="none" stroke="#c0c0c0" d="M707.3032,-433.4817C675.2911,-423.0525 633.6973,-409.5015 599.6299,-398.4026"/>
<polygon fill="#c0c0c0" stroke="#c0c0c0" points="600.37,-394.9628 589.7777,-395.1929 598.2016,-401.6185 600.37,-394.9628"/>
</g>
<!-- xrdb_service -->
<g id="node7" class="node">
<title>xrdb_service</title>
<ellipse fill="none" stroke="#000000" cx="959.0051" cy="-450" rx="58.4896" ry="18"/>
<text text-anchor="middle" x="959.0051" y="-446.3" font-family="Times,serif" font-size="14.00" fill="#000000">xrdb_service</text>
</g>
<!-- xrdb_service&#45;&gt;xfce_pre_target -->
<g id="edge6" class="edge">
<title>xrdb_service&#45;&gt;xfce_pre_target</title>
<path fill="none" stroke="#c0c0c0" d="M915.6393,-437.778C907.4911,-435.6932 899.0158,-433.6662 891.0051,-432 789.9166,-410.9739 670.9981,-394.5016 599.9311,-385.5241"/>
<polygon fill="#c0c0c0" stroke="#c0c0c0" points="600.1585,-382.0253 589.8008,-384.2543 599.2878,-388.9709 600.1585,-382.0253"/>
</g>
<!-- xfce_syndaemon_service&#45;&gt;xfce_pre_target -->
<g id="edge7" class="edge">
<title>xfce_syndaemon_service&#45;&gt;xfce_pre_target</title>
<path fill="none" stroke="#c0c0c0" d="M380.5897,-433.752C408.9395,-423.6471 445.726,-410.5351 476.5009,-399.5659"/>
<polygon fill="#c0c0c0" stroke="#c0c0c0" points="478.0188,-402.7406 486.2632,-396.0862 475.6685,-396.1469 478.0188,-402.7406"/>
</g>
<!-- xfce4_session_service&#45;&gt;xfce_init_target -->
<g id="edge8" class="edge">
<title>xfce4_session_service&#45;&gt;xfce_init_target</title>
<path fill="none" stroke="#c0c0c0" d="M436.0426,-289.7963C419.9158,-281.1533 403.1032,-268.7734 394.0051,-252 386.3764,-237.9357 385.7522,-229.7073 394.0051,-216 403.1198,-200.8613 418.0597,-189.7445 433.7296,-181.6751"/>
<polygon fill="#c0c0c0" stroke="#c0c0c0" points="435.472,-184.7223 443.0016,-177.2687 432.4673,-178.3999 435.472,-184.7223"/>
</g>
<!-- xfce4_session_service&#45;&gt;xfce4_session_set_SESSIONMANAGER_var_service -->
<g id="edge10" class="edge">
<title>xfce4_session_service&#45;&gt;xfce4_session_set_SESSIONMANAGER_var_service</title>
<path fill="none" stroke="#c0c0c0" d="M510.0633,-289.1192C529.2075,-279.3434 553.5409,-266.9179 574.2562,-256.3398"/>
<polygon fill="#c0c0c0" stroke="#c0c0c0" points="575.8722,-259.4447 583.1865,-251.7797 572.6887,-253.2104 575.8722,-259.4447"/>
</g>
<!-- xfce4_session_set_SESSIONMANAGER_var_service&#45;&gt;xfce_init_target -->
<g id="edge9" class="edge">
<title>xfce4_session_set_SESSIONMANAGER_var_service&#45;&gt;xfce_init_target</title>
<path fill="none" stroke="#c0c0c0" d="M587.534,-216.0171C571.8129,-206.7391 552.4468,-195.3099 535.5829,-185.3574"/>
<polygon fill="#c0c0c0" stroke="#c0c0c0" points="536.9015,-182.0716 526.5105,-180.0032 533.3437,-188.1 536.9015,-182.0716"/>
</g>
<!-- xfsettingsd_service&#45;&gt;xfce_init_target -->
<g id="edge11" class="edge">
<title>xfsettingsd_service&#45;&gt;xfce_init_target</title>
<path fill="none" stroke="#c0c0c0" d="M773.8123,-295.6745C799.5698,-288.0764 826.5087,-274.8886 842.0051,-252 850.9751,-238.7509 852.41,-228.1547 842.0051,-216 823.8616,-194.8053 653.844,-176.2417 559.0794,-167.4331"/>
<polygon fill="#c0c0c0" stroke="#c0c0c0" points="559.3096,-163.9396 549.0312,-166.5094 558.6688,-170.9102 559.3096,-163.9396"/>
</g>
<!-- xfsettingsd_service&#45;&gt;xfce4_session_set_SESSIONMANAGER_var_service -->
<g id="edge12" class="edge">
<title>xfsettingsd_service&#45;&gt;xfce4_session_set_SESSIONMANAGER_var_service</title>
<path fill="none" stroke="#c0c0c0" d="M685.4607,-288.5708C674.2352,-279.4896 660.326,-268.2372 648.0595,-258.3137"/>
<polygon fill="#c0c0c0" stroke="#c0c0c0" points="650.2564,-255.589 640.2805,-252.0206 645.8537,-261.0312 650.2564,-255.589"/>
</g>
<!-- xfwm4_service&#45;&gt;xfce_target -->
<g id="edge13" class="edge">
<title>xfwm4_service&#45;&gt;xfce_target</title>
<path fill="none" stroke="#c0c0c0" d="M135.0141,-77.779C143.9777,-75.7401 153.2506,-73.7288 162.0051,-72 262.2426,-52.2056 380.4643,-34.3799 445.9532,-24.9862"/>
<polygon fill="#c0c0c0" stroke="#c0c0c0" points="446.5951,-28.4302 456.0001,-23.552 445.6058,-21.5004 446.5951,-28.4302"/>
</g>
<!-- thunar_service&#45;&gt;xfce_target -->
<g id="edge14" class="edge">
<title>thunar_service&#45;&gt;xfce_target</title>
<path fill="none" stroke="#c0c0c0" d="M282.1883,-77.2108C328.2356,-64.4592 398.7411,-44.9346 446.0659,-31.8293"/>
<polygon fill="#c0c0c0" stroke="#c0c0c0" points="447.0923,-35.1769 455.7955,-29.135 445.2241,-28.4308 447.0923,-35.1769"/>
</g>
<!-- xfce4_panel_service&#45;&gt;xfce_target -->
<g id="edge15" class="edge">
<title>xfce4_panel_service&#45;&gt;xfce_target</title>
<path fill="none" stroke="#c0c0c0" d="M427.0336,-72.5708C438.5113,-63.4896 452.7331,-52.2372 465.2753,-42.3137"/>
<polygon fill="#c0c0c0" stroke="#c0c0c0" points="467.5585,-44.9702 473.229,-36.0206 463.2151,-39.4807 467.5585,-44.9702"/>
</g>
<!-- xfdesktop_service&#45;&gt;xfce_target -->
<g id="edge16" class="edge">
<title>xfdesktop_service&#45;&gt;xfce_target</title>
<path fill="none" stroke="#c0c0c0" d="M564.9765,-72.5708C553.4988,-63.4896 539.2771,-52.2372 526.7349,-42.3137"/>
<polygon fill="#c0c0c0" stroke="#c0c0c0" points="528.795,-39.4807 518.7811,-36.0206 524.4516,-44.9702 528.795,-39.4807"/>
</g>
<!-- xfce4_notifyd_service&#45;&gt;xfce_target -->
<g id="edge17" class="edge">
<title>xfce4_notifyd_service&#45;&gt;xfce_target</title>
<path fill="none" stroke="#c0c0c0" d="M720.8159,-75.6028C669.7208,-62.5108 595.0188,-43.3701 545.9654,-30.8012"/>
<polygon fill="#c0c0c0" stroke="#c0c0c0" points="546.7642,-27.3929 536.2083,-28.3012 545.0266,-34.1738 546.7642,-27.3929"/>
</g>
<!-- xfce4_power_manager_service&#45;&gt;xfce_target -->
<g id="edge18" class="edge">
<title>xfce4_power_manager_service&#45;&gt;xfce_target</title>
<path fill="none" stroke="#c0c0c0" d="M924.3054,-77.4174C814.4603,-62.1788 633.3333,-37.0513 546.0679,-24.9451"/>
<polygon fill="#c0c0c0" stroke="#c0c0c0" points="546.5402,-21.4772 536.154,-23.5698 545.5782,-28.4108 546.5402,-21.4772"/>
</g>
<!-- tumbler_service&#45;&gt;xfce_target -->
<g id="edge19" class="edge">
<title>tumbler_service&#45;&gt;xfce_target</title>
<path fill="none" stroke="#c0c0c0" d="M1178.637,-77.4053C1169.1695,-75.3566 1159.3194,-73.4383 1150.0051,-72 926.4011,-37.4727 656.1454,-24.0178 546.1834,-19.7197"/>
<polygon fill="#c0c0c0" stroke="#c0c0c0" points="546.1758,-16.217 536.0492,-19.332 545.908,-23.2119 546.1758,-16.217"/>
</g>
</g>
</svg>
