<?xml version="1.0" encoding="UTF-8" standalone="no"?>
<!DOCTYPE svg PUBLIC "-//W3C//DTD SVG 1.1//EN"
 "http://www.w3.org/Graphics/SVG/1.1/DTD/svg11.dtd">
<!-- Generated by graphviz version 2.40.1 (20161225.0304)
 -->
<!-- Title: xfce_systemd Pages: 1 -->
<svg width="1315pt" height="548pt"
 viewBox="0.00 0.00 1315.44 548.00" xmlns="http://www.w3.org/2000/svg" xmlns:xlink="http://www.w3.org/1999/xlink">
<g id="graph0" class="graph" transform="scale(1 1) rotate(0) translate(4 544)">
<title>xfce_systemd</title>
<polygon fill="#ffffff" stroke="transparent" points="-4,4 -4,-544 1311.4366,-544 1311.4366,4 -4,4"/>
<!-- xfce_pre_target -->
<g id="node1" class="node">
<title>xfce_pre_target</title>
<polygon fill="none" stroke="#000000" points="465.3928,-396 360.3928,-396 360.3928,-360 465.3928,-360 465.3928,-396"/>
<text text-anchor="middle" x="412.8928" y="-374.3" font-family="Times,serif" font-size="14.00" fill="#000000">xfce_pre_target</text>
</g>
<!-- xfce_init_target -->
<g id="node2" class="node">
<title>xfce_init_target</title>
<polygon fill="none" stroke="#000000" points="466.8928,-180 360.8928,-180 360.8928,-144 466.8928,-144 466.8928,-180"/>
<text text-anchor="middle" x="413.8928" y="-158.3" font-family="Times,serif" font-size="14.00" fill="#000000">xfce_init_target</text>
</g>
<!-- xfce_pre_target&#45;&gt;xfce_init_target -->
<g id="edge1" class="edge">
<title>xfce_pre_target&#45;&gt;xfce_init_target</title>
<path fill="none" stroke="#c0c0c0" d="M360.2259,-365.2558C274.7585,-342.1144 120.952,-288.7649 178.8928,-216 200.0124,-189.4769 288.4911,-174.8988 350.6313,-167.7683"/>
<polygon fill="#c0c0c0" stroke="#c0c0c0" points="351.1952,-171.2273 360.7483,-166.6459 350.4233,-164.27 351.1952,-171.2273"/>
</g>
<!-- xfce4_session_service -->
<g id="node9" class="node">
<title>xfce4_session_service</title>
<ellipse fill="none" stroke="#000000" cx="352.8928" cy="-306" rx="92.8835" ry="18"/>
<text text-anchor="middle" x="352.8928" y="-302.3" font-family="Times,serif" font-size="14.00" fill="#000000">xfce4_session_service</text>
</g>
<!-- xfce_pre_target&#45;&gt;xfce4_session_service -->
<g id="edge20" class="edge">
<title>xfce_pre_target&#45;&gt;xfce4_session_service</title>
<path fill="none" stroke="#00ff00" d="M397.7522,-359.8314C390.6637,-351.3251 382.0944,-341.0419 374.3528,-331.752"/>
<polygon fill="#00ff00" stroke="#00ff00" points="376.9113,-329.355 367.8206,-323.9134 371.5337,-333.8363 376.9113,-329.355"/>
</g>
<!-- xfce4_session_set_SESSIONMANAGER_var_service -->
<g id="node10" class="node">
<title>xfce4_session_set_SESSIONMANAGER_var_service</title>
<ellipse fill="none" stroke="#000000" cx="413.8928" cy="-234" rx="215.2619" ry="18"/>
<text text-anchor="middle" x="413.8928" y="-230.3" font-family="Times,serif" font-size="14.00" fill="#000000">xfce4_session_set_SESSIONMANAGER_var_service</text>
</g>
<!-- xfce_pre_target&#45;&gt;xfce4_session_set_SESSIONMANAGER_var_service -->
<g id="edge21" class="edge">
<title>xfce_pre_target&#45;&gt;xfce4_session_set_SESSIONMANAGER_var_service</title>
<path fill="none" stroke="#00ff00" d="M431.9428,-359.8859C440.7498,-350.1885 450.2674,-337.4808 454.8928,-324 460.0854,-308.866 459.9972,-303.1639 454.8928,-288 451.513,-277.9596 445.4422,-268.3047 438.9903,-260.0052"/>
<polygon fill="#00ff00" stroke="#00ff00" points="441.5807,-257.6461 432.4968,-252.1933 436.1976,-262.1208 441.5807,-257.6461"/>
</g>
<!-- xfsettingsd_service -->
<g id="node11" class="node">
<title>xfsettingsd_service</title>
<ellipse fill="none" stroke="#000000" cx="727.8928" cy="-234" rx="81.4863" ry="18"/>
<text text-anchor="middle" x="727.8928" y="-230.3" font-family="Times,serif" font-size="14.00" fill="#000000">xfsettingsd_service</text>
</g>
<!-- xfce_pre_target&#45;&gt;xfsettingsd_service -->
<g id="edge22" class="edge">
<title>xfce_pre_target&#45;&gt;xfsettingsd_service</title>
<path fill="none" stroke="#00ff00" d="M452.4688,-359.9081C511.2507,-333.0364 621.3097,-282.7237 683.0142,-254.5159"/>
<polygon fill="#00ff00" stroke="#00ff00" points="684.4816,-257.6936 692.1211,-250.3527 681.5712,-251.3272 684.4816,-257.6936"/>
</g>
<!-- xfce_target -->
<g id="node3" class="node">
<title>xfce_target</title>
<polygon fill="none" stroke="#000000" points="453.8928,-36 373.8928,-36 373.8928,0 453.8928,0 453.8928,-36"/>
<text text-anchor="middle" x="413.8928" y="-14.3" font-family="Times,serif" font-size="14.00" fill="#000000">xfce_target</text>
</g>
<!-- xfce_init_target&#45;&gt;xfce_target -->
<g id="edge2" class="edge">
<title>xfce_init_target&#45;&gt;xfce_target</title>
<path fill="none" stroke="#c0c0c0" d="M360.6434,-158.9343C255.6421,-152.0551 30.5394,-133.9355 7.8928,-108 -2.6309,-95.948 -2.6309,-84.052 7.8928,-72 30.755,-45.8176 259.9471,-27.6005 363.6098,-20.8723"/>
<polygon fill="#c0c0c0" stroke="#c0c0c0" points="364.0758,-24.3497 373.8326,-20.2198 363.6299,-17.3639 364.0758,-24.3497"/>
</g>
<!-- xfce_init_target&#45;&gt;xfce_target -->
<g id="edge33" class="edge">
<title>xfce_init_target&#45;&gt;xfce_target</title>
<path fill="none" stroke="#00ff00" d="M360.7871,-158.2494C259.6328,-150.9034 47.8245,-133.1168 25.8928,-108 15.3691,-95.948 15.3691,-84.052 25.8928,-72 48.0139,-46.6663 263.3044,-28.79 363.3822,-21.5627"/>
<polygon fill="#00ff00" stroke="#00ff00" points="363.8356,-25.0393 373.5607,-20.8355 363.3367,-18.0571 363.8356,-25.0393"/>
</g>
<!-- xfwm4_service -->
<g id="node12" class="node">
<title>xfwm4_service</title>
<ellipse fill="none" stroke="#000000" cx="93.8928" cy="-90" rx="67.6881" ry="18"/>
<text text-anchor="middle" x="93.8928" y="-86.3" font-family="Times,serif" font-size="14.00" fill="#000000">xfwm4_service</text>
</g>
<!-- xfce_init_target&#45;&gt;xfwm4_service -->
<g id="edge26" class="edge">
<title>xfce_init_target&#45;&gt;xfwm4_service</title>
<path fill="none" stroke="#00ff00" d="M360.7634,-150.3693C311.5083,-139.545 236.2027,-122.8898 170.8928,-108 165.6224,-106.7984 160.1517,-105.5407 154.667,-104.2724"/>
<polygon fill="#00ff00" stroke="#00ff00" points="155.3519,-100.8384 144.8196,-101.9881 153.77,-107.6573 155.3519,-100.8384"/>
</g>
<!-- thunar_service -->
<g id="node13" class="node">
<title>thunar_service</title>
<ellipse fill="none" stroke="#000000" cx="244.8928" cy="-90" rx="64.9885" ry="18"/>
<text text-anchor="middle" x="244.8928" y="-86.3" font-family="Times,serif" font-size="14.00" fill="#000000">thunar_service</text>
</g>
<!-- xfce_init_target&#45;&gt;thunar_service -->
<g id="edge27" class="edge">
<title>xfce_init_target&#45;&gt;thunar_service</title>
<path fill="none" stroke="#00ff00" d="M371.2469,-143.8314C346.3623,-133.2296 314.9988,-119.8677 289.7449,-109.1086"/>
<polygon fill="#00ff00" stroke="#00ff00" points="290.9632,-105.8233 280.3915,-105.1237 288.2196,-112.2632 290.9632,-105.8233"/>
</g>
<!-- xfce4_panel_service -->
<g id="node14" class="node">
<title>xfce4_panel_service</title>
<ellipse fill="none" stroke="#000000" cx="413.8928" cy="-90" rx="86.3847" ry="18"/>
<text text-anchor="middle" x="413.8928" y="-86.3" font-family="Times,serif" font-size="14.00" fill="#000000">xfce4_panel_service</text>
</g>
<!-- xfce_init_target&#45;&gt;xfce4_panel_service -->
<g id="edge28" class="edge">
<title>xfce_init_target&#45;&gt;xfce4_panel_service</title>
<path fill="none" stroke="#00ff00" d="M413.8928,-143.8314C413.8928,-136.131 413.8928,-126.9743 413.8928,-118.4166"/>
<polygon fill="#00ff00" stroke="#00ff00" points="417.3929,-118.4132 413.8928,-108.4133 410.3929,-118.4133 417.3929,-118.4132"/>
</g>
<!-- xfdesktop_service -->
<g id="node15" class="node">
<title>xfdesktop_service</title>
<ellipse fill="none" stroke="#000000" cx="595.8928" cy="-90" rx="77.9862" ry="18"/>
<text text-anchor="middle" x="595.8928" y="-86.3" font-family="Times,serif" font-size="14.00" fill="#000000">xfdesktop_service</text>
</g>
<!-- xfce_init_target&#45;&gt;xfdesktop_service -->
<g id="edge29" class="edge">
<title>xfce_init_target&#45;&gt;xfdesktop_service</title>
<path fill="none" stroke="#00ff00" d="M459.8191,-143.8314C486.4772,-133.2853 520.0395,-120.0079 547.1616,-109.2783"/>
<polygon fill="#00ff00" stroke="#00ff00" points="548.4533,-112.5313 556.4645,-105.598 545.8782,-106.0221 548.4533,-112.5313"/>
</g>
<!-- xfce4_notifyd_service -->
<g id="node16" class="node">
<title>xfce4_notifyd_service</title>
<ellipse fill="none" stroke="#000000" cx="785.8928" cy="-90" rx="93.6835" ry="18"/>
<text text-anchor="middle" x="785.8928" y="-86.3" font-family="Times,serif" font-size="14.00" fill="#000000">xfce4_notifyd_service</text>
</g>
<!-- xfce_init_target&#45;&gt;xfce4_notifyd_service -->
<g id="edge30" class="edge">
<title>xfce_init_target&#45;&gt;xfce4_notifyd_service</title>
<path fill="none" stroke="#00ff00" d="M467.1913,-151.6842C530.7983,-139.3731 637.607,-118.7005 709.8651,-104.715"/>
<polygon fill="#00ff00" stroke="#00ff00" points="710.671,-108.1241 719.8236,-102.7876 709.3407,-101.2516 710.671,-108.1241"/>
</g>
<!-- xfce4_power_manager_service -->
<g id="node17" class="node">
<title>xfce4_power_manager_service</title>
<ellipse fill="none" stroke="#000000" cx="1023.8928" cy="-90" rx="126.1777" ry="18"/>
<text text-anchor="middle" x="1023.8928" y="-86.3" font-family="Times,serif" font-size="14.00" fill="#000000">xfce4_power_manager_service</text>
</g>
<!-- xfce_init_target&#45;&gt;xfce4_power_manager_service -->
<g id="edge31" class="edge">
<title>xfce_init_target&#45;&gt;xfce4_power_manager_service</title>
<path fill="none" stroke="#00ff00" d="M467.0037,-156.3013C554.8445,-146.8 735.8892,-126.8955 888.8928,-108 899.7828,-106.6551 911.1608,-105.2063 922.492,-103.7355"/>
<polygon fill="#00ff00" stroke="#00ff00" points="922.9613,-107.204 932.4242,-102.4394 922.0554,-100.2629 922.9613,-107.204"/>
</g>
<!-- tumbler_service -->
<g id="node18" class="node">
<title>tumbler_service</title>
<ellipse fill="none" stroke="#000000" cx="1237.8928" cy="-90" rx="69.5877" ry="18"/>
<text text-anchor="middle" x="1237.8928" y="-86.3" font-family="Times,serif" font-size="14.00" fill="#000000">tumbler_service</text>
</g>
<!-- xfce_init_target&#45;&gt;tumbler_service -->
<g id="edge32" class="edge">
<title>xfce_init_target&#45;&gt;tumbler_service</title>
<path fill="none" stroke="#00ff00" d="M467.0384,-160.9111C589.6259,-157.7979 901.4142,-146.4376 1158.8928,-108 1165.1013,-107.0732 1171.5458,-105.9225 1177.9554,-104.6542"/>
<polygon fill="#00ff00" stroke="#00ff00" points="1178.879,-108.0372 1187.96,-102.5796 1177.4576,-101.1831 1178.879,-108.0372"/>
</g>
<!-- xfconfd_service -->
<g id="node4" class="node">
<title>xfconfd_service</title>
<ellipse fill="none" stroke="#000000" cx="169.8928" cy="-522" rx="70.3881" ry="18"/>
<text text-anchor="middle" x="169.8928" y="-518.3" font-family="Times,serif" font-size="14.00" fill="#000000">xfconfd_service</text>
</g>
<!-- xfconfd_service&#45;&gt;xfce_pre_target -->
<g id="edge3" class="edge">
<title>xfconfd_service&#45;&gt;xfce_pre_target</title>
<path fill="none" stroke="#c0c0c0" d="M163.9924,-503.7393C163.1736,-483.3572 169.0402,-450.7793 188.8928,-432 211.6083,-410.5124 292.1095,-394.5465 350.1882,-385.7499"/>
<polygon fill="#c0c0c0" stroke="#c0c0c0" points="351.0083,-389.1669 360.3897,-384.2433 349.9856,-382.242 351.0083,-389.1669"/>
</g>
<!-- xfconfd_service&#45;&gt;xfce_pre_target -->
<g id="edge19" class="edge">
<title>xfconfd_service&#45;&gt;xfce_pre_target</title>
<path fill="none" stroke="#00ff00" d="M176.9955,-503.7393C181.1736,-483.3572 187.0402,-450.7793 206.8928,-432 227.807,-412.2164 297.7054,-397.1134 350.3956,-387.9771"/>
<polygon fill="#00ff00" stroke="#00ff00" points="351.0787,-391.4113 360.3509,-386.2853 349.9059,-384.5102 351.0787,-391.4113"/>
</g>
<!-- xfce_syndaemon_service -->
<g id="node8" class="node">
<title>xfce_syndaemon_service</title>
<ellipse fill="none" stroke="#000000" cx="311.8928" cy="-450" rx="104.7816" ry="18"/>
<text text-anchor="middle" x="311.8928" y="-446.3" font-family="Times,serif" font-size="14.00" fill="#000000">xfce_syndaemon_service</text>
</g>
<!-- xfconfd_service&#45;&gt;xfce_syndaemon_service -->
<g id="edge34" class="edge">
<title>xfconfd_service&#45;&gt;xfce_syndaemon_service</title>
<path fill="none" stroke="#00ff00" d="M201.7603,-505.8418C221.6509,-495.7564 247.5004,-482.6496 269.157,-471.6688"/>
<polygon fill="#00ff00" stroke="#00ff00" points="270.816,-474.7519 278.1521,-467.1079 267.6503,-468.5086 270.816,-474.7519"/>
</g>
<!-- xmodmap_service -->
<g id="node5" class="node">
<title>xmodmap_service</title>
<ellipse fill="none" stroke="#000000" cx="513.8928" cy="-450" rx="79.0865" ry="18"/>
<text text-anchor="middle" x="513.8928" y="-446.3" font-family="Times,serif" font-size="14.00" fill="#000000">xmodmap_service</text>
</g>
<!-- xmodmap_service&#45;&gt;xfce_pre_target -->
<g id="edge4" class="edge">
<title>xmodmap_service&#45;&gt;xfce_pre_target</title>
<path fill="none" stroke="#c0c0c0" d="M489.7008,-432.7542C476.8453,-423.5899 460.8342,-412.1761 446.7624,-402.1447"/>
<polygon fill="#c0c0c0" stroke="#c0c0c0" points="448.4713,-399.0646 438.2968,-396.1098 444.4079,-404.7646 448.4713,-399.0646"/>
</g>
<!-- xdg_user_dirs_update_service -->
<g id="node6" class="node">
<title>xdg_user_dirs_update_service</title>
<ellipse fill="none" stroke="#000000" cx="734.8928" cy="-450" rx="124.2781" ry="18"/>
<text text-anchor="middle" x="734.8928" y="-446.3" font-family="Times,serif" font-size="14.00" fill="#000000">xdg_user_dirs_update_service</text>
</g>
<!-- xdg_user_dirs_update_service&#45;&gt;xfce_pre_target -->
<g id="edge5" class="edge">
<title>xdg_user_dirs_update_service&#45;&gt;xfce_pre_target</title>
<path fill="none" stroke="#c0c0c0" d="M666.9983,-434.8186C610.4581,-422.1761 530.577,-404.3145 475.5458,-392.0094"/>
<polygon fill="#c0c0c0" stroke="#c0c0c0" points="476.0935,-388.5455 465.5707,-389.7789 474.566,-395.3768 476.0935,-388.5455"/>
</g>
<!-- xrdb_service -->
<g id="node7" class="node">
<title>xrdb_service</title>
<ellipse fill="none" stroke="#000000" cx="935.8928" cy="-450" rx="58.4896" ry="18"/>
<text text-anchor="middle" x="935.8928" y="-446.3" font-family="Times,serif" font-size="14.00" fill="#000000">xrdb_service</text>
</g>
<!-- xrdb_service&#45;&gt;xfce_pre_target -->
<g id="edge6" class="edge">
<title>xrdb_service&#45;&gt;xfce_pre_target</title>
<path fill="none" stroke="#c0c0c0" d="M892.9352,-437.6523C884.6716,-435.5549 876.05,-433.5557 867.8928,-432 729.0289,-405.5169 563.6951,-389.7797 475.5611,-382.6313"/>
<polygon fill="#c0c0c0" stroke="#c0c0c0" points="475.7094,-379.1321 465.4619,-381.8225 475.1505,-386.1097 475.7094,-379.1321"/>
</g>
<!-- xfce_syndaemon_service&#45;&gt;xfce_pre_target -->
<g id="edge7" class="edge">
<title>xfce_syndaemon_service&#45;&gt;xfce_pre_target</title>
<path fill="none" stroke="#c0c0c0" d="M336.6002,-432.3868C349.3679,-423.2851 365.1424,-412.0399 379.028,-402.1412"/>
<polygon fill="#c0c0c0" stroke="#c0c0c0" points="381.2747,-404.8379 387.3858,-396.1832 377.2113,-399.138 381.2747,-404.8379"/>
</g>
<!-- xfce4_session_service&#45;&gt;xfce_init_target -->
<g id="edge8" class="edge">
<title>xfce4_session_service&#45;&gt;xfce_init_target</title>
<path fill="none" stroke="#c0c0c0" d="M284.2526,-293.8561C226.6949,-280.6086 158.5416,-255.8072 189.8928,-216 209.6342,-190.9339 291.7501,-176.139 350.8401,-168.5476"/>
<polygon fill="#c0c0c0" stroke="#c0c0c0" points="351.3566,-172.0104 360.8476,-167.3018 350.4918,-165.064 351.3566,-172.0104"/>
</g>
<!-- xfce4_session_service&#45;&gt;xfce4_session_set_SESSIONMANAGER_var_service -->
<g id="edge10" class="edge">
<title>xfce4_session_service&#45;&gt;xfce4_session_set_SESSIONMANAGER_var_service</title>
<path fill="none" stroke="#c0c0c0" d="M362.3333,-287.8314C368.7754,-279.2392 377.4128,-268.834 385.8268,-259.4708"/>
<polygon fill="#c0c0c0" stroke="#c0c0c0" points="388.5876,-261.6397 392.7889,-251.9134 383.4392,-256.8968 388.5876,-261.6397"/>
</g>
<!-- xfce4_session_service&#45;&gt;xfce4_session_set_SESSIONMANAGER_var_service -->
<g id="edge23" class="edge">
<title>xfce4_session_service&#45;&gt;xfce4_session_set_SESSIONMANAGER_var_service</title>
<path fill="none" stroke="#00ff00" d="M373.8872,-288.2022C381.9438,-279.6992 390.9044,-269.3577 398.3808,-259.9965"/>
<polygon fill="#00ff00" stroke="#00ff00" points="401.1472,-262.1405 404.5089,-252.0931 395.6153,-257.8512 401.1472,-262.1405"/>
</g>
<!-- xfce4_session_set_SESSIONMANAGER_var_service&#45;&gt;xfce_init_target -->
<g id="edge9" class="edge">
<title>xfce4_session_set_SESSIONMANAGER_var_service&#45;&gt;xfce_init_target</title>
<path fill="none" stroke="#c0c0c0" d="M407.9404,-215.8314C407.19,-208.131 406.9691,-198.9743 407.2777,-190.4166"/>
<polygon fill="#c0c0c0" stroke="#c0c0c0" points="410.772,-190.6161 407.9168,-180.4133 403.7862,-190.1697 410.772,-190.6161"/>
</g>
<!-- xfce4_session_set_SESSIONMANAGER_var_service&#45;&gt;xfce_init_target -->
<g id="edge24" class="edge">
<title>xfce4_session_set_SESSIONMANAGER_var_service&#45;&gt;xfce_init_target</title>
<path fill="none" stroke="#00ff00" d="M419.8452,-215.8314C420.5956,-208.131 420.8165,-198.9743 420.5079,-190.4166"/>
<polygon fill="#00ff00" stroke="#00ff00" points="423.9993,-190.1697 419.8688,-180.4133 417.0136,-190.6161 423.9993,-190.1697"/>
</g>
<!-- xfsettingsd_service&#45;&gt;xfce_init_target -->
<g id="edge11" class="edge">
<title>xfsettingsd_service&#45;&gt;xfce_init_target</title>
<path fill="none" stroke="#c0c0c0" d="M668.6722,-221.6228C613.8928,-209.4853 532.8371,-190.9338 476.8913,-177.751"/>
<polygon fill="#c0c0c0" stroke="#c0c0c0" points="477.6336,-174.3301 467.0967,-175.4371 476.0241,-181.1426 477.6336,-174.3301"/>
</g>
<!-- xfsettingsd_service&#45;&gt;xfce_init_target -->
<g id="edge25" class="edge">
<title>xfsettingsd_service&#45;&gt;xfce_init_target</title>
<path fill="none" stroke="#00ff00" d="M674.2432,-220.4574C619.5637,-207.507 534.9185,-188.1011 477.0448,-175.2493"/>
<polygon fill="#00ff00" stroke="#00ff00" points="477.4423,-171.7526 466.9221,-173.0081 475.9291,-178.5871 477.4423,-171.7526"/>
</g>
<!-- xfwm4_service&#45;&gt;xfce_target -->
<g id="edge12" class="edge">
<title>xfwm4_service&#45;&gt;xfce_target</title>
<path fill="none" stroke="#c0c0c0" d="M144.8196,-78.0119C153.5148,-75.9889 162.4602,-73.9225 170.8928,-72 237.5696,-56.7985 314.665,-39.7571 363.8215,-28.9588"/>
<polygon fill="#c0c0c0" stroke="#c0c0c0" points="364.8562,-32.3151 373.8731,-26.7522 363.3552,-25.4779 364.8562,-32.3151"/>
</g>
<!-- thunar_service&#45;&gt;xfce_target -->
<g id="edge13" class="edge">
<title>thunar_service&#45;&gt;xfce_target</title>
<path fill="none" stroke="#c0c0c0" d="M280.3207,-74.9064C304.7366,-64.5044 337.5174,-50.5386 364.4936,-39.0458"/>
<polygon fill="#c0c0c0" stroke="#c0c0c0" points="365.9421,-42.2332 373.7702,-35.0937 363.1984,-35.7932 365.9421,-42.2332"/>
</g>
<!-- xfce4_panel_service&#45;&gt;xfce_target -->
<g id="edge14" class="edge">
<title>xfce4_panel_service&#45;&gt;xfce_target</title>
<path fill="none" stroke="#c0c0c0" d="M413.8928,-71.8314C413.8928,-64.131 413.8928,-54.9743 413.8928,-46.4166"/>
<polygon fill="#c0c0c0" stroke="#c0c0c0" points="417.3929,-46.4132 413.8928,-36.4133 410.3929,-46.4133 417.3929,-46.4132"/>
</g>
<!-- xfdesktop_service&#45;&gt;xfce_target -->
<g id="edge15" class="edge">
<title>xfdesktop_service&#45;&gt;xfce_target</title>
<path fill="none" stroke="#c0c0c0" d="M556.4015,-74.3771C529.1623,-63.6011 492.7421,-49.1931 463.5388,-37.6402"/>
<polygon fill="#c0c0c0" stroke="#c0c0c0" points="464.5218,-34.2652 453.9355,-33.8411 461.9467,-40.7744 464.5218,-34.2652"/>
</g>
<!-- xfce4_notifyd_service&#45;&gt;xfce_target -->
<g id="edge16" class="edge">
<title>xfce4_notifyd_service&#45;&gt;xfce_target</title>
<path fill="none" stroke="#c0c0c0" d="M719.8153,-77.2108C646.6859,-63.0567 530.4412,-40.5578 464.2966,-27.7556"/>
<polygon fill="#c0c0c0" stroke="#c0c0c0" points="464.6081,-24.251 454.1252,-25.7869 463.2779,-31.1235 464.6081,-24.251"/>
</g>
<!-- xfce4_power_manager_service&#45;&gt;xfce_target -->
<g id="edge17" class="edge">
<title>xfce4_power_manager_service&#45;&gt;xfce_target</title>
<path fill="none" stroke="#c0c0c0" d="M932.4242,-77.5606C917.8685,-75.6514 902.9728,-73.7388 888.8928,-72 734.1485,-52.8895 550.7214,-32.7469 464.042,-23.3785"/>
<polygon fill="#c0c0c0" stroke="#c0c0c0" points="464.2773,-19.8836 453.9594,-22.2902 463.526,-26.8432 464.2773,-19.8836"/>
</g>
<!-- tumbler_service&#45;&gt;xfce_target -->
<g id="edge18" class="edge">
<title>tumbler_service&#45;&gt;xfce_target</title>
<path fill="none" stroke="#c0c0c0" d="M1187.96,-77.4204C1178.362,-75.3444 1168.3534,-73.4123 1158.8928,-72 899.3592,-33.2556 584.6454,-22.0225 464.1393,-19.016"/>
<polygon fill="#c0c0c0" stroke="#c0c0c0" points="464.1854,-15.5162 454.1037,-18.7736 464.0163,-22.5141 464.1854,-15.5162"/>
</g>
</g>
</svg>
