<?xml version="1.0" encoding="UTF-8" standalone="no"?>
<!DOCTYPE svg PUBLIC "-//W3C//DTD SVG 1.1//EN"
 "http://www.w3.org/Graphics/SVG/1.1/DTD/svg11.dtd">
<!-- Generated by graphviz version 2.40.1 (20161225.0304)
 -->
<!-- Title: xfce_systemd Pages: 1 -->
<svg width="1315pt" height="548pt"
 viewBox="0.00 0.00 1315.44 548.00" xmlns="http://www.w3.org/2000/svg" xmlns:xlink="http://www.w3.org/1999/xlink">
<g id="graph0" class="graph" transform="scale(1 1) rotate(0) translate(4 544)">
<title>xfce_systemd</title>
<polygon fill="#ffffff" stroke="transparent" points="-4,4 -4,-544 1311.4366,-544 1311.4366,4 -4,4"/>
<!-- xfce_pre_target -->
<g id="node1" class="node">
<title>xfce_pre_target</title>
<polygon fill="none" stroke="#000000" points="411.3928,-324 306.3928,-324 306.3928,-288 411.3928,-288 411.3928,-324"/>
<text text-anchor="middle" x="358.8928" y="-302.3" font-family="Times,serif" font-size="14.00" fill="#000000">xfce_pre_target</text>
</g>
<!-- xfce_init_target -->
<g id="node2" class="node">
<title>xfce_init_target</title>
<polygon fill="none" stroke="#000000" points="466.8928,-180 360.8928,-180 360.8928,-144 466.8928,-144 466.8928,-180"/>
<text text-anchor="middle" x="413.8928" y="-158.3" font-family="Times,serif" font-size="14.00" fill="#000000">xfce_init_target</text>
</g>
<!-- xfce_pre_target&#45;&gt;xfce_init_target -->
<g id="edge1" class="edge">
<title>xfce_pre_target&#45;&gt;xfce_init_target</title>
<path fill="none" stroke="#c0c0c0" d="M342.5163,-287.7204C327.866,-269.0296 310.5941,-239.488 323.8928,-216 331.1873,-203.1166 342.9173,-192.9716 355.5326,-185.1245"/>
<polygon fill="#c0c0c0" stroke="#c0c0c0" points="357.4347,-188.0683 364.3641,-180.0537 353.9491,-181.9978 357.4347,-188.0683"/>
</g>
<!-- xfsettingsd_service -->
<g id="node11" class="node">
<title>xfsettingsd_service</title>
<ellipse fill="none" stroke="#000000" cx="413.8928" cy="-234" rx="81.4863" ry="18"/>
<text text-anchor="middle" x="413.8928" y="-230.3" font-family="Times,serif" font-size="14.00" fill="#000000">xfsettingsd_service</text>
</g>
<!-- xfce_pre_target&#45;&gt;xfsettingsd_service -->
<g id="edge22" class="edge">
<title>xfce_pre_target&#45;&gt;xfsettingsd_service</title>
<path fill="none" stroke="#00ff00" d="M372.7716,-287.8314C379.2038,-279.411 386.9661,-269.2495 394.0058,-260.0338"/>
<polygon fill="#00ff00" stroke="#00ff00" points="396.9198,-261.9848 400.2089,-251.9134 391.3571,-257.7355 396.9198,-261.9848"/>
</g>
<!-- xfce_target -->
<g id="node3" class="node">
<title>xfce_target</title>
<polygon fill="none" stroke="#000000" points="453.8928,-36 373.8928,-36 373.8928,0 453.8928,0 453.8928,-36"/>
<text text-anchor="middle" x="413.8928" y="-14.3" font-family="Times,serif" font-size="14.00" fill="#000000">xfce_target</text>
</g>
<!-- xfce_init_target&#45;&gt;xfce_target -->
<g id="edge2" class="edge">
<title>xfce_init_target&#45;&gt;xfce_target</title>
<path fill="none" stroke="#c0c0c0" d="M360.6434,-158.9343C255.6421,-152.0551 30.5394,-133.9355 7.8928,-108 -2.6309,-95.948 -2.6309,-84.052 7.8928,-72 30.755,-45.8176 259.9471,-27.6005 363.6098,-20.8723"/>
<polygon fill="#c0c0c0" stroke="#c0c0c0" points="364.0758,-24.3497 373.8326,-20.2198 363.6299,-17.3639 364.0758,-24.3497"/>
</g>
<!-- xfce_init_target&#45;&gt;xfce_target -->
<g id="edge33" class="edge">
<title>xfce_init_target&#45;&gt;xfce_target</title>
<path fill="none" stroke="#00ff00" d="M360.7871,-158.2494C259.6328,-150.9034 47.8245,-133.1168 25.8928,-108 15.3691,-95.948 15.3691,-84.052 25.8928,-72 48.0139,-46.6663 263.3044,-28.79 363.3822,-21.5627"/>
<polygon fill="#00ff00" stroke="#00ff00" points="363.8356,-25.0393 373.5607,-20.8355 363.3367,-18.0571 363.8356,-25.0393"/>
</g>
<!-- xfwm4_service -->
<g id="node12" class="node">
<title>xfwm4_service</title>
<ellipse fill="none" stroke="#000000" cx="93.8928" cy="-90" rx="67.6881" ry="18"/>
<text text-anchor="middle" x="93.8928" y="-86.3" font-family="Times,serif" font-size="14.00" fill="#000000">xfwm4_service</text>
</g>
<!-- xfce_init_target&#45;&gt;xfwm4_service -->
<g id="edge26" class="edge">
<title>xfce_init_target&#45;&gt;xfwm4_service</title>
<path fill="none" stroke="#00ff00" d="M360.7634,-150.3693C311.5083,-139.545 236.2027,-122.8898 170.8928,-108 165.6224,-106.7984 160.1517,-105.5407 154.667,-104.2724"/>
<polygon fill="#00ff00" stroke="#00ff00" points="155.3519,-100.8384 144.8196,-101.9881 153.77,-107.6573 155.3519,-100.8384"/>
</g>
<!-- thunar_service -->
<g id="node13" class="node">
<title>thunar_service</title>
<ellipse fill="none" stroke="#000000" cx="244.8928" cy="-90" rx="64.9885" ry="18"/>
<text text-anchor="middle" x="244.8928" y="-86.3" font-family="Times,serif" font-size="14.00" fill="#000000">thunar_service</text>
</g>
<!-- xfce_init_target&#45;&gt;thunar_service -->
<g id="edge27" class="edge">
<title>xfce_init_target&#45;&gt;thunar_service</title>
<path fill="none" stroke="#00ff00" d="M371.2469,-143.8314C346.3623,-133.2296 314.9988,-119.8677 289.7449,-109.1086"/>
<polygon fill="#00ff00" stroke="#00ff00" points="290.9632,-105.8233 280.3915,-105.1237 288.2196,-112.2632 290.9632,-105.8233"/>
</g>
<!-- xfce4_panel_service -->
<g id="node14" class="node">
<title>xfce4_panel_service</title>
<ellipse fill="none" stroke="#000000" cx="413.8928" cy="-90" rx="86.3847" ry="18"/>
<text text-anchor="middle" x="413.8928" y="-86.3" font-family="Times,serif" font-size="14.00" fill="#000000">xfce4_panel_service</text>
</g>
<!-- xfce_init_target&#45;&gt;xfce4_panel_service -->
<g id="edge28" class="edge">
<title>xfce_init_target&#45;&gt;xfce4_panel_service</title>
<path fill="none" stroke="#00ff00" d="M413.8928,-143.8314C413.8928,-136.131 413.8928,-126.9743 413.8928,-118.4166"/>
<polygon fill="#00ff00" stroke="#00ff00" points="417.3929,-118.4132 413.8928,-108.4133 410.3929,-118.4133 417.3929,-118.4132"/>
</g>
<!-- xfdesktop_service -->
<g id="node15" class="node">
<title>xfdesktop_service</title>
<ellipse fill="none" stroke="#000000" cx="595.8928" cy="-90" rx="77.9862" ry="18"/>
<text text-anchor="middle" x="595.8928" y="-86.3" font-family="Times,serif" font-size="14.00" fill="#000000">xfdesktop_service</text>
</g>
<!-- xfce_init_target&#45;&gt;xfdesktop_service -->
<g id="edge29" class="edge">
<title>xfce_init_target&#45;&gt;xfdesktop_service</title>
<path fill="none" stroke="#00ff00" d="M459.8191,-143.8314C486.4772,-133.2853 520.0395,-120.0079 547.1616,-109.2783"/>
<polygon fill="#00ff00" stroke="#00ff00" points="548.4533,-112.5313 556.4645,-105.598 545.8782,-106.0221 548.4533,-112.5313"/>
</g>
<!-- xfce4_notifyd_service -->
<g id="node16" class="node">
<title>xfce4_notifyd_service</title>
<ellipse fill="none" stroke="#000000" cx="785.8928" cy="-90" rx="93.6835" ry="18"/>
<text text-anchor="middle" x="785.8928" y="-86.3" font-family="Times,serif" font-size="14.00" fill="#000000">xfce4_notifyd_service</text>
</g>
<!-- xfce_init_target&#45;&gt;xfce4_notifyd_service -->
<g id="edge30" class="edge">
<title>xfce_init_target&#45;&gt;xfce4_notifyd_service</title>
<path fill="none" stroke="#00ff00" d="M467.1913,-151.6842C530.7983,-139.3731 637.607,-118.7005 709.8651,-104.715"/>
<polygon fill="#00ff00" stroke="#00ff00" points="710.671,-108.1241 719.8236,-102.7876 709.3407,-101.2516 710.671,-108.1241"/>
</g>
<!-- xfce4_power_manager_service -->
<g id="node17" class="node">
<title>xfce4_power_manager_service</title>
<ellipse fill="none" stroke="#000000" cx="1023.8928" cy="-90" rx="126.1777" ry="18"/>
<text text-anchor="middle" x="1023.8928" y="-86.3" font-family="Times,serif" font-size="14.00" fill="#000000">xfce4_power_manager_service</text>
</g>
<!-- xfce_init_target&#45;&gt;xfce4_power_manager_service -->
<g id="edge31" class="edge">
<title>xfce_init_target&#45;&gt;xfce4_power_manager_service</title>
<path fill="none" stroke="#00ff00" d="M467.0037,-156.3013C554.8445,-146.8 735.8892,-126.8955 888.8928,-108 899.7828,-106.6551 911.1608,-105.2063 922.492,-103.7355"/>
<polygon fill="#00ff00" stroke="#00ff00" points="922.9613,-107.204 932.4242,-102.4394 922.0554,-100.2629 922.9613,-107.204"/>
</g>
<!-- tumbler_service -->
<g id="node18" class="node">
<title>tumbler_service</title>
<ellipse fill="none" stroke="#000000" cx="1237.8928" cy="-90" rx="69.5877" ry="18"/>
<text text-anchor="middle" x="1237.8928" y="-86.3" font-family="Times,serif" font-size="14.00" fill="#000000">tumbler_service</text>
</g>
<!-- xfce_init_target&#45;&gt;tumbler_service -->
<g id="edge32" class="edge">
<title>xfce_init_target&#45;&gt;tumbler_service</title>
<path fill="none" stroke="#00ff00" d="M467.0384,-160.9111C589.6259,-157.7979 901.4142,-146.4376 1158.8928,-108 1165.1013,-107.0732 1171.5458,-105.9225 1177.9554,-104.6542"/>
<polygon fill="#00ff00" stroke="#00ff00" points="1178.879,-108.0372 1187.96,-102.5796 1177.4576,-101.1831 1178.879,-108.0372"/>
</g>
<!-- xfconfd_service -->
<g id="node4" class="node">
<title>xfconfd_service</title>
<ellipse fill="none" stroke="#000000" cx="278.8928" cy="-522" rx="70.3881" ry="18"/>
<text text-anchor="middle" x="278.8928" y="-518.3" font-family="Times,serif" font-size="14.00" fill="#000000">xfconfd_service</text>
</g>
<!-- xfconfd_service&#45;&gt;xfce_pre_target -->
<g id="edge3" class="edge">
<title>xfconfd_service&#45;&gt;xfce_pre_target</title>
<path fill="none" stroke="#c0c0c0" d="M239.2815,-507.0037C177.0868,-479.3906 68.7023,-418.0082 114.8928,-360 136.7985,-332.4897 231.1711,-317.8301 296,-311.0028"/>
<polygon fill="#c0c0c0" stroke="#c0c0c0" points="296.5402,-314.466 306.1354,-309.9735 295.8329,-307.5019 296.5402,-314.466"/>
</g>
<!-- xfconfd_service&#45;&gt;xfce_pre_target -->
<g id="edge20" class="edge">
<title>xfconfd_service&#45;&gt;xfce_pre_target</title>
<path fill="none" stroke="#00ff00" d="M247.2374,-505.6742C191.7114,-477.4582 87.4297,-417.0947 132.8928,-360 153.291,-334.3829 236.525,-319.9087 296.1206,-312.5253"/>
<polygon fill="#00ff00" stroke="#00ff00" points="296.698,-315.9812 306.2096,-311.3143 295.8637,-309.0311 296.698,-315.9812"/>
</g>
<!-- xfce4_session_service -->
<g id="node5" class="node">
<title>xfce4_session_service</title>
<ellipse fill="none" stroke="#000000" cx="278.8928" cy="-450" rx="92.8835" ry="18"/>
<text text-anchor="middle" x="278.8928" y="-446.3" font-family="Times,serif" font-size="14.00" fill="#000000">xfce4_session_service</text>
</g>
<!-- xfconfd_service&#45;&gt;xfce4_session_service -->
<g id="edge4" class="edge">
<title>xfconfd_service&#45;&gt;xfce4_session_service</title>
<path fill="none" stroke="#c0c0c0" d="M272.9404,-503.8314C272.19,-496.131 271.9691,-486.9743 272.2777,-478.4166"/>
<polygon fill="#c0c0c0" stroke="#c0c0c0" points="275.772,-478.6161 272.9168,-468.4133 268.7862,-478.1697 275.772,-478.6161"/>
</g>
<!-- xfconfd_service&#45;&gt;xfce4_session_service -->
<g id="edge21" class="edge">
<title>xfconfd_service&#45;&gt;xfce4_session_service</title>
<path fill="none" stroke="#00ff00" d="M284.8452,-503.8314C285.5956,-496.131 285.8165,-486.9743 285.5079,-478.4166"/>
<polygon fill="#00ff00" stroke="#00ff00" points="288.9993,-478.1697 284.8688,-468.4133 282.0136,-478.6161 288.9993,-478.1697"/>
</g>
<!-- xfce_syndaemon_service -->
<g id="node9" class="node">
<title>xfce_syndaemon_service</title>
<ellipse fill="none" stroke="#000000" cx="547.8928" cy="-450" rx="104.7816" ry="18"/>
<text text-anchor="middle" x="547.8928" y="-446.3" font-family="Times,serif" font-size="14.00" fill="#000000">xfce_syndaemon_service</text>
</g>
<!-- xfconfd_service&#45;&gt;xfce_syndaemon_service -->
<g id="edge34" class="edge">
<title>xfconfd_service&#45;&gt;xfce_syndaemon_service</title>
<path fill="none" stroke="#00ff00" d="M327.6066,-508.9613C370.5768,-497.4601 433.5961,-480.5924 481.2338,-467.8418"/>
<polygon fill="#00ff00" stroke="#00ff00" points="482.398,-471.1535 491.153,-465.1869 480.588,-464.3915 482.398,-471.1535"/>
</g>
<!-- xfce4_session_service&#45;&gt;xfce_pre_target -->
<g id="edge9" class="edge">
<title>xfce4_session_service&#45;&gt;xfce_pre_target</title>
<path fill="none" stroke="#c0c0c0" d="M218.0943,-436.3454C166.9035,-421.9741 106.2548,-396.3622 134.8928,-360 154.6927,-334.8596 237.2372,-320.0514 296.3647,-312.4803"/>
<polygon fill="#c0c0c0" stroke="#c0c0c0" points="296.8817,-315.9431 306.3747,-311.2384 296.0198,-308.9963 296.8817,-315.9431"/>
</g>
<!-- xfce4_session_set_SESSIONMANAGER_var_service -->
<g id="node10" class="node">
<title>xfce4_session_set_SESSIONMANAGER_var_service</title>
<ellipse fill="none" stroke="#000000" cx="358.8928" cy="-378" rx="215.2619" ry="18"/>
<text text-anchor="middle" x="358.8928" y="-374.3" font-family="Times,serif" font-size="14.00" fill="#000000">xfce4_session_set_SESSIONMANAGER_var_service</text>
</g>
<!-- xfce4_session_service&#45;&gt;xfce4_session_set_SESSIONMANAGER_var_service -->
<g id="edge11" class="edge">
<title>xfce4_session_service&#45;&gt;xfce4_session_set_SESSIONMANAGER_var_service</title>
<path fill="none" stroke="#c0c0c0" d="M293.1278,-431.8314C302.1857,-422.8955 314.1355,-411.9987 325.4089,-402.3524"/>
<polygon fill="#c0c0c0" stroke="#c0c0c0" points="327.6632,-405.0297 333.0617,-395.9134 323.1565,-399.6735 327.6632,-405.0297"/>
</g>
<!-- xfce4_session_service&#45;&gt;xfce4_session_set_SESSIONMANAGER_var_service -->
<g id="edge23" class="edge">
<title>xfce4_session_service&#45;&gt;xfce4_session_set_SESSIONMANAGER_var_service</title>
<path fill="none" stroke="#00ff00" d="M304.1368,-432.5708C314.8489,-423.749 327.1248,-412.8784 337.3997,-403.1674"/>
<polygon fill="#00ff00" stroke="#00ff00" points="340.041,-405.4825 344.8078,-396.0206 335.1808,-400.4447 340.041,-405.4825"/>
</g>
<!-- xmodmap_service -->
<g id="node6" class="node">
<title>xmodmap_service</title>
<ellipse fill="none" stroke="#000000" cx="708.8928" cy="-378" rx="79.0865" ry="18"/>
<text text-anchor="middle" x="708.8928" y="-374.3" font-family="Times,serif" font-size="14.00" fill="#000000">xmodmap_service</text>
</g>
<!-- xmodmap_service&#45;&gt;xfce_pre_target -->
<g id="edge5" class="edge">
<title>xmodmap_service&#45;&gt;xfce_pre_target</title>
<path fill="none" stroke="#c0c0c0" d="M649.9158,-365.8676C586.5787,-352.8383 486.3379,-332.2173 421.5965,-318.899"/>
<polygon fill="#c0c0c0" stroke="#c0c0c0" points="422.0219,-315.4133 411.5217,-316.8265 420.6114,-322.2698 422.0219,-315.4133"/>
</g>
<!-- xdg_user_dirs_update_service -->
<g id="node7" class="node">
<title>xdg_user_dirs_update_service</title>
<ellipse fill="none" stroke="#000000" cx="929.8928" cy="-378" rx="124.2781" ry="18"/>
<text text-anchor="middle" x="929.8928" y="-374.3" font-family="Times,serif" font-size="14.00" fill="#000000">xdg_user_dirs_update_service</text>
</g>
<!-- xdg_user_dirs_update_service&#45;&gt;xfce_pre_target -->
<g id="edge6" class="edge">
<title>xdg_user_dirs_update_service&#45;&gt;xfce_pre_target</title>
<path fill="none" stroke="#c0c0c0" d="M839.4096,-365.6076C825.185,-363.7018 810.6423,-361.7779 796.8928,-360 663.2724,-342.7218 506.5507,-323.7007 421.5152,-313.484"/>
<polygon fill="#c0c0c0" stroke="#c0c0c0" points="421.8527,-309.9995 411.5068,-312.2824 421.0183,-316.9496 421.8527,-309.9995"/>
</g>
<!-- xrdb_service -->
<g id="node8" class="node">
<title>xrdb_service</title>
<ellipse fill="none" stroke="#000000" cx="1130.8928" cy="-378" rx="58.4896" ry="18"/>
<text text-anchor="middle" x="1130.8928" y="-374.3" font-family="Times,serif" font-size="14.00" fill="#000000">xrdb_service</text>
</g>
<!-- xrdb_service&#45;&gt;xfce_pre_target -->
<g id="edge7" class="edge">
<title>xrdb_service&#45;&gt;xfce_pre_target</title>
<path fill="none" stroke="#c0c0c0" d="M1088.3492,-365.469C1079.9706,-363.362 1071.201,-361.4062 1062.8928,-360 828.3655,-320.3059 544.8957,-309.7616 421.4257,-306.9828"/>
<polygon fill="#c0c0c0" stroke="#c0c0c0" points="421.4698,-303.4831 411.3966,-306.7664 421.3187,-310.4814 421.4698,-303.4831"/>
</g>
<!-- xfce_syndaemon_service&#45;&gt;xfce_pre_target -->
<g id="edge8" class="edge">
<title>xfce_syndaemon_service&#45;&gt;xfce_pre_target</title>
<path fill="none" stroke="#c0c0c0" d="M564.5042,-432.2062C580.5209,-412.8376 600.008,-381.7316 582.8928,-360 563.0928,-334.8596 480.5483,-320.0514 421.4209,-312.4803"/>
<polygon fill="#c0c0c0" stroke="#c0c0c0" points="421.7657,-308.9963 411.4109,-311.2384 420.9038,-315.9431 421.7657,-308.9963"/>
</g>
<!-- xfce4_session_set_SESSIONMANAGER_var_service&#45;&gt;xfce_pre_target -->
<g id="edge10" class="edge">
<title>xfce4_session_set_SESSIONMANAGER_var_service&#45;&gt;xfce_pre_target</title>
<path fill="none" stroke="#c0c0c0" d="M352.9404,-359.8314C352.19,-352.131 351.9691,-342.9743 352.2777,-334.4166"/>
<polygon fill="#c0c0c0" stroke="#c0c0c0" points="355.772,-334.6161 352.9168,-324.4133 348.7862,-334.1697 355.772,-334.6161"/>
</g>
<!-- xfce4_session_set_SESSIONMANAGER_var_service&#45;&gt;xfce_pre_target -->
<g id="edge24" class="edge">
<title>xfce4_session_set_SESSIONMANAGER_var_service&#45;&gt;xfce_pre_target</title>
<path fill="none" stroke="#00ff00" d="M364.8452,-359.8314C365.5956,-352.131 365.8165,-342.9743 365.5079,-334.4166"/>
<polygon fill="#00ff00" stroke="#00ff00" points="368.9993,-334.1697 364.8688,-324.4133 362.0136,-334.6161 368.9993,-334.1697"/>
</g>
<!-- xfsettingsd_service&#45;&gt;xfce_init_target -->
<g id="edge12" class="edge">
<title>xfsettingsd_service&#45;&gt;xfce_init_target</title>
<path fill="none" stroke="#c0c0c0" d="M407.9404,-215.8314C407.19,-208.131 406.9691,-198.9743 407.2777,-190.4166"/>
<polygon fill="#c0c0c0" stroke="#c0c0c0" points="410.772,-190.6161 407.9168,-180.4133 403.7862,-190.1697 410.772,-190.6161"/>
</g>
<!-- xfsettingsd_service&#45;&gt;xfce_init_target -->
<g id="edge25" class="edge">
<title>xfsettingsd_service&#45;&gt;xfce_init_target</title>
<path fill="none" stroke="#00ff00" d="M419.8452,-215.8314C420.5956,-208.131 420.8165,-198.9743 420.5079,-190.4166"/>
<polygon fill="#00ff00" stroke="#00ff00" points="423.9993,-190.1697 419.8688,-180.4133 417.0136,-190.6161 423.9993,-190.1697"/>
</g>
<!-- xfwm4_service&#45;&gt;xfce_target -->
<g id="edge13" class="edge">
<title>xfwm4_service&#45;&gt;xfce_target</title>
<path fill="none" stroke="#c0c0c0" d="M144.8196,-78.0119C153.5148,-75.9889 162.4602,-73.9225 170.8928,-72 237.5696,-56.7985 314.665,-39.7571 363.8215,-28.9588"/>
<polygon fill="#c0c0c0" stroke="#c0c0c0" points="364.8562,-32.3151 373.8731,-26.7522 363.3552,-25.4779 364.8562,-32.3151"/>
</g>
<!-- thunar_service&#45;&gt;xfce_target -->
<g id="edge14" class="edge">
<title>thunar_service&#45;&gt;xfce_target</title>
<path fill="none" stroke="#c0c0c0" d="M280.3207,-74.9064C304.7366,-64.5044 337.5174,-50.5386 364.4936,-39.0458"/>
<polygon fill="#c0c0c0" stroke="#c0c0c0" points="365.9421,-42.2332 373.7702,-35.0937 363.1984,-35.7932 365.9421,-42.2332"/>
</g>
<!-- xfce4_panel_service&#45;&gt;xfce_target -->
<g id="edge15" class="edge">
<title>xfce4_panel_service&#45;&gt;xfce_target</title>
<path fill="none" stroke="#c0c0c0" d="M413.8928,-71.8314C413.8928,-64.131 413.8928,-54.9743 413.8928,-46.4166"/>
<polygon fill="#c0c0c0" stroke="#c0c0c0" points="417.3929,-46.4132 413.8928,-36.4133 410.3929,-46.4133 417.3929,-46.4132"/>
</g>
<!-- xfdesktop_service&#45;&gt;xfce_target -->
<g id="edge16" class="edge">
<title>xfdesktop_service&#45;&gt;xfce_target</title>
<path fill="none" stroke="#c0c0c0" d="M556.4015,-74.3771C529.1623,-63.6011 492.7421,-49.1931 463.5388,-37.6402"/>
<polygon fill="#c0c0c0" stroke="#c0c0c0" points="464.5218,-34.2652 453.9355,-33.8411 461.9467,-40.7744 464.5218,-34.2652"/>
</g>
<!-- xfce4_notifyd_service&#45;&gt;xfce_target -->
<g id="edge17" class="edge">
<title>xfce4_notifyd_service&#45;&gt;xfce_target</title>
<path fill="none" stroke="#c0c0c0" d="M719.8153,-77.2108C646.6859,-63.0567 530.4412,-40.5578 464.2966,-27.7556"/>
<polygon fill="#c0c0c0" stroke="#c0c0c0" points="464.6081,-24.251 454.1252,-25.7869 463.2779,-31.1235 464.6081,-24.251"/>
</g>
<!-- xfce4_power_manager_service&#45;&gt;xfce_target -->
<g id="edge18" class="edge">
<title>xfce4_power_manager_service&#45;&gt;xfce_target</title>
<path fill="none" stroke="#c0c0c0" d="M932.4242,-77.5606C917.8685,-75.6514 902.9728,-73.7388 888.8928,-72 734.1485,-52.8895 550.7214,-32.7469 464.042,-23.3785"/>
<polygon fill="#c0c0c0" stroke="#c0c0c0" points="464.2773,-19.8836 453.9594,-22.2902 463.526,-26.8432 464.2773,-19.8836"/>
</g>
<!-- tumbler_service&#45;&gt;xfce_target -->
<g id="edge19" class="edge">
<title>tumbler_service&#45;&gt;xfce_target</title>
<path fill="none" stroke="#c0c0c0" d="M1187.96,-77.4204C1178.362,-75.3444 1168.3534,-73.4123 1158.8928,-72 899.3592,-33.2556 584.6454,-22.0225 464.1393,-19.016"/>
<polygon fill="#c0c0c0" stroke="#c0c0c0" points="464.1854,-15.5162 454.1037,-18.7736 464.0163,-22.5141 464.1854,-15.5162"/>
</g>
</g>
</svg>
