<?xml version="1.0" encoding="UTF-8" standalone="no"?>
<!DOCTYPE svg PUBLIC "-//W3C//DTD SVG 1.1//EN"
 "http://www.w3.org/Graphics/SVG/1.1/DTD/svg11.dtd">
<!-- Generated by graphviz version 2.40.1 (20161225.0304)
 -->
<!-- Title: xfce_systemd Pages: 1 -->
<svg width="1307pt" height="548pt"
 viewBox="0.00 0.00 1306.55 548.00" xmlns="http://www.w3.org/2000/svg" xmlns:xlink="http://www.w3.org/1999/xlink">
<g id="graph0" class="graph" transform="scale(1 1) rotate(0) translate(4 544)">
<title>xfce_systemd</title>
<polygon fill="#ffffff" stroke="transparent" points="-4,4 -4,-544 1302.5489,-544 1302.5489,4 -4,4"/>
<!-- xfce_pre_target -->
<g id="node1" class="node">
<title>xfce_pre_target</title>
<ellipse fill="none" stroke="#000000" cx="537.0051" cy="-378" rx="68.4888" ry="18"/>
<text text-anchor="middle" x="537.0051" y="-374.3" font-family="Times,serif" font-size="14.00" fill="#000000">xfce_pre_target</text>
</g>
<!-- xfce_init_target -->
<g id="node2" class="node">
<title>xfce_init_target</title>
<ellipse fill="none" stroke="#000000" cx="496.0051" cy="-162" rx="68.7879" ry="18"/>
<text text-anchor="middle" x="496.0051" y="-158.3" font-family="Times,serif" font-size="14.00" fill="#000000">xfce_init_target</text>
</g>
<!-- xfce_pre_target&#45;&gt;xfce_init_target -->
<g id="edge1" class="edge">
<title>xfce_pre_target&#45;&gt;xfce_init_target</title>
<path fill="none" stroke="#c0c0c0" d="M482.5281,-366.9754C440.6797,-357.271 387.9193,-341.9175 375.0051,-324 362.1607,-306.1794 374.6042,-230.3248 385.0051,-216 397.665,-198.5639 417.5033,-186.4941 436.9282,-178.265"/>
<polygon fill="#c0c0c0" stroke="#c0c0c0" points="438.3812,-181.4544 446.3976,-174.5271 435.811,-174.9433 438.3812,-181.4544"/>
</g>
<!-- xfce4_session_service -->
<g id="node9" class="node">
<title>xfce4_session_service</title>
<ellipse fill="none" stroke="#000000" cx="477.0051" cy="-306" rx="92.8835" ry="18"/>
<text text-anchor="middle" x="477.0051" y="-302.3" font-family="Times,serif" font-size="14.00" fill="#000000">xfce4_session_service</text>
</g>
<!-- xfce_pre_target&#45;&gt;xfce4_session_service -->
<g id="edge20" class="edge">
<title>xfce_pre_target&#45;&gt;xfce4_session_service</title>
<path fill="none" stroke="#00ff00" d="M522.1736,-360.2022C515.0341,-351.6348 506.3392,-341.2009 498.4917,-331.7839"/>
<polygon fill="#00ff00" stroke="#00ff00" points="500.9645,-329.2841 491.8739,-323.8425 495.587,-333.7654 500.9645,-329.2841"/>
</g>
<!-- xfce4_session_set_SESSIONMANAGER_var_service -->
<g id="node10" class="node">
<title>xfce4_session_set_SESSIONMANAGER_var_service</title>
<ellipse fill="none" stroke="#000000" cx="618.0051" cy="-234" rx="215.2619" ry="18"/>
<text text-anchor="middle" x="618.0051" y="-230.3" font-family="Times,serif" font-size="14.00" fill="#000000">xfce4_session_set_SESSIONMANAGER_var_service</text>
</g>
<!-- xfce_pre_target&#45;&gt;xfce4_session_set_SESSIONMANAGER_var_service -->
<g id="edge21" class="edge">
<title>xfce_pre_target&#45;&gt;xfce4_session_set_SESSIONMANAGER_var_service</title>
<path fill="none" stroke="#00ff00" d="M552.595,-360.3268C561.0821,-350.1565 571.3757,-336.8739 579.0051,-324 590.7986,-304.0993 601.0575,-279.9768 608.0896,-261.7165"/>
<polygon fill="#00ff00" stroke="#00ff00" points="611.4097,-262.8311 611.6536,-252.2391 604.8576,-260.3672 611.4097,-262.8311"/>
</g>
<!-- xfsettingsd_service -->
<g id="node11" class="node">
<title>xfsettingsd_service</title>
<ellipse fill="none" stroke="#000000" cx="707.0051" cy="-306" rx="81.4863" ry="18"/>
<text text-anchor="middle" x="707.0051" y="-302.3" font-family="Times,serif" font-size="14.00" fill="#000000">xfsettingsd_service</text>
</g>
<!-- xfce_pre_target&#45;&gt;xfsettingsd_service -->
<g id="edge22" class="edge">
<title>xfce_pre_target&#45;&gt;xfsettingsd_service</title>
<path fill="none" stroke="#00ff00" d="M573.4743,-362.5542C598.6959,-351.8721 632.4907,-337.559 659.771,-326.005"/>
<polygon fill="#00ff00" stroke="#00ff00" points="661.2808,-329.1666 669.124,-322.0438 658.5508,-322.7209 661.2808,-329.1666"/>
</g>
<!-- xfce_target -->
<g id="node3" class="node">
<title>xfce_target</title>
<ellipse fill="none" stroke="#000000" cx="496.0051" cy="-18" rx="51.9908" ry="18"/>
<text text-anchor="middle" x="496.0051" y="-14.3" font-family="Times,serif" font-size="14.00" fill="#000000">xfce_target</text>
</g>
<!-- xfce_init_target&#45;&gt;xfce_target -->
<g id="edge2" class="edge">
<title>xfce_init_target&#45;&gt;xfce_target</title>
<path fill="none" stroke="#c0c0c0" d="M427.3698,-159.387C299.5584,-153.8118 35.4766,-138.6791 8.0051,-108 -2.6684,-96.0804 -2.6684,-83.9196 8.0051,-72 35.9353,-40.8086 308.4428,-25.6873 433.6561,-20.3417"/>
<polygon fill="#c0c0c0" stroke="#c0c0c0" points="434.0138,-23.8299 443.8583,-19.9139 433.7204,-16.836 434.0138,-23.8299"/>
</g>
<!-- xfwm4_service -->
<g id="node12" class="node">
<title>xfwm4_service</title>
<ellipse fill="none" stroke="#000000" cx="85.0051" cy="-90" rx="67.6881" ry="18"/>
<text text-anchor="middle" x="85.0051" y="-86.3" font-family="Times,serif" font-size="14.00" fill="#000000">xfwm4_service</text>
</g>
<!-- xfce_init_target&#45;&gt;xfwm4_service -->
<g id="edge23" class="edge">
<title>xfce_init_target&#45;&gt;xfwm4_service</title>
<path fill="none" stroke="#00ff00" d="M435.1368,-153.4544C368.0167,-143.7301 256.9443,-126.7481 162.0051,-108 156.5335,-106.9195 150.8595,-105.7287 145.185,-104.4897"/>
<polygon fill="#00ff00" stroke="#00ff00" points="145.5362,-100.9821 135.0141,-102.221 144.0122,-107.8142 145.5362,-100.9821"/>
</g>
<!-- thunar_service -->
<g id="node13" class="node">
<title>thunar_service</title>
<ellipse fill="none" stroke="#000000" cx="236.0051" cy="-90" rx="64.9885" ry="18"/>
<text text-anchor="middle" x="236.0051" y="-86.3" font-family="Times,serif" font-size="14.00" fill="#000000">thunar_service</text>
</g>
<!-- xfce_init_target&#45;&gt;thunar_service -->
<g id="edge24" class="edge">
<title>xfce_init_target&#45;&gt;thunar_service</title>
<path fill="none" stroke="#00ff00" d="M448.6194,-148.8778C404.4511,-136.6466 338.5581,-118.3993 291.8518,-105.4653"/>
<polygon fill="#00ff00" stroke="#00ff00" points="292.7626,-102.0858 282.1912,-102.79 290.8944,-108.8319 292.7626,-102.0858"/>
</g>
<!-- xfce4_panel_service -->
<g id="node14" class="node">
<title>xfce4_panel_service</title>
<ellipse fill="none" stroke="#000000" cx="405.0051" cy="-90" rx="86.3847" ry="18"/>
<text text-anchor="middle" x="405.0051" y="-86.3" font-family="Times,serif" font-size="14.00" fill="#000000">xfce4_panel_service</text>
</g>
<!-- xfce_init_target&#45;&gt;xfce4_panel_service -->
<g id="edge25" class="edge">
<title>xfce_init_target&#45;&gt;xfce4_panel_service</title>
<path fill="none" stroke="#00ff00" d="M473.9765,-144.5708C462.3262,-135.353 447.8487,-123.8983 435.1702,-113.8669"/>
<polygon fill="#00ff00" stroke="#00ff00" points="437.1601,-110.9783 427.1462,-107.5182 432.8167,-116.4679 437.1601,-110.9783"/>
</g>
<!-- xfdesktop_service -->
<g id="node15" class="node">
<title>xfdesktop_service</title>
<ellipse fill="none" stroke="#000000" cx="587.0051" cy="-90" rx="77.9862" ry="18"/>
<text text-anchor="middle" x="587.0051" y="-86.3" font-family="Times,serif" font-size="14.00" fill="#000000">xfdesktop_service</text>
</g>
<!-- xfce_init_target&#45;&gt;xfdesktop_service -->
<g id="edge26" class="edge">
<title>xfce_init_target&#45;&gt;xfdesktop_service</title>
<path fill="none" stroke="#00ff00" d="M518.0336,-144.5708C529.6839,-135.353 544.1614,-123.8983 556.8399,-113.8669"/>
<polygon fill="#00ff00" stroke="#00ff00" points="559.1934,-116.4679 564.864,-107.5182 554.85,-110.9783 559.1934,-116.4679"/>
</g>
<!-- xfce4_notifyd_service -->
<g id="node16" class="node">
<title>xfce4_notifyd_service</title>
<ellipse fill="none" stroke="#000000" cx="777.0051" cy="-90" rx="93.6835" ry="18"/>
<text text-anchor="middle" x="777.0051" y="-86.3" font-family="Times,serif" font-size="14.00" fill="#000000">xfce4_notifyd_service</text>
</g>
<!-- xfce_init_target&#45;&gt;xfce4_notifyd_service -->
<g id="edge27" class="edge">
<title>xfce_init_target&#45;&gt;xfce4_notifyd_service</title>
<path fill="none" stroke="#00ff00" d="M545.2731,-149.3762C591.1655,-137.6173 659.9369,-119.9961 710.648,-107.0025"/>
<polygon fill="#00ff00" stroke="#00ff00" points="711.7189,-110.3413 720.5372,-104.4686 709.9814,-103.5603 711.7189,-110.3413"/>
</g>
<!-- xfce4_power_manager_service -->
<g id="node17" class="node">
<title>xfce4_power_manager_service</title>
<ellipse fill="none" stroke="#000000" cx="1015.0051" cy="-90" rx="126.1777" ry="18"/>
<text text-anchor="middle" x="1015.0051" y="-86.3" font-family="Times,serif" font-size="14.00" fill="#000000">xfce4_power_manager_service</text>
</g>
<!-- xfce_init_target&#45;&gt;xfce4_power_manager_service -->
<g id="edge28" class="edge">
<title>xfce_init_target&#45;&gt;xfce4_power_manager_service</title>
<path fill="none" stroke="#00ff00" d="M557.0671,-153.529C644.9357,-141.3391 808.0979,-118.7039 914.0626,-104.0036"/>
<polygon fill="#00ff00" stroke="#00ff00" points="914.7101,-107.4474 924.1342,-102.6064 913.7481,-100.5138 914.7101,-107.4474"/>
</g>
<!-- tumbler_service -->
<g id="node18" class="node">
<title>tumbler_service</title>
<ellipse fill="none" stroke="#000000" cx="1229.0051" cy="-90" rx="69.5877" ry="18"/>
<text text-anchor="middle" x="1229.0051" y="-86.3" font-family="Times,serif" font-size="14.00" fill="#000000">tumbler_service</text>
</g>
<!-- xfce_init_target&#45;&gt;tumbler_service -->
<g id="edge29" class="edge">
<title>xfce_init_target&#45;&gt;tumbler_service</title>
<path fill="none" stroke="#00ff00" d="M564.6408,-159.5325C684.1714,-154.5234 938.0475,-140.729 1150.0051,-108 1156.1176,-107.0561 1162.4609,-105.9055 1168.7753,-104.647"/>
<polygon fill="#00ff00" stroke="#00ff00" points="1169.5598,-108.0588 1178.637,-102.5947 1168.1336,-101.2056 1169.5598,-108.0588"/>
</g>
<!-- xfconfd_service -->
<g id="node4" class="node">
<title>xfconfd_service</title>
<ellipse fill="none" stroke="#000000" cx="300.0051" cy="-522" rx="70.3881" ry="18"/>
<text text-anchor="middle" x="300.0051" y="-518.3" font-family="Times,serif" font-size="14.00" fill="#000000">xfconfd_service</text>
</g>
<!-- xfconfd_service&#45;&gt;xfce_pre_target -->
<g id="edge3" class="edge">
<title>xfconfd_service&#45;&gt;xfce_pre_target</title>
<path fill="none" stroke="#c0c0c0" d="M282.8976,-504.4826C266.0399,-485.0739 245.1951,-453.6625 263.0051,-432 287.5608,-402.1325 387.8789,-388.5206 460.0215,-382.5025"/>
<polygon fill="#c0c0c0" stroke="#c0c0c0" points="460.3148,-385.9903 470.0033,-381.7028 459.7557,-379.0127 460.3148,-385.9903"/>
</g>
<!-- syndaemon_service -->
<g id="node8" class="node">
<title>syndaemon_service</title>
<ellipse fill="none" stroke="#000000" cx="356.0051" cy="-450" rx="83.6854" ry="18"/>
<text text-anchor="middle" x="356.0051" y="-446.3" font-family="Times,serif" font-size="14.00" fill="#000000">syndaemon_service</text>
</g>
<!-- xfconfd_service&#45;&gt;syndaemon_service -->
<g id="edge30" class="edge">
<title>xfconfd_service&#45;&gt;syndaemon_service</title>
<path fill="none" stroke="#00ff00" d="M313.8478,-504.2022C320.5113,-495.6348 328.6266,-485.2009 335.9509,-475.7839"/>
<polygon fill="#00ff00" stroke="#00ff00" points="338.7508,-477.8849 342.1275,-467.8425 333.2253,-473.5873 338.7508,-477.8849"/>
</g>
<!-- xmodmap_service -->
<g id="node5" class="node">
<title>xmodmap_service</title>
<ellipse fill="none" stroke="#000000" cx="537.0051" cy="-450" rx="79.0865" ry="18"/>
<text text-anchor="middle" x="537.0051" y="-446.3" font-family="Times,serif" font-size="14.00" fill="#000000">xmodmap_service</text>
</g>
<!-- xmodmap_service&#45;&gt;xfce_pre_target -->
<g id="edge4" class="edge">
<title>xmodmap_service&#45;&gt;xfce_pre_target</title>
<path fill="none" stroke="#c0c0c0" d="M537.0051,-431.8314C537.0051,-424.131 537.0051,-414.9743 537.0051,-406.4166"/>
<polygon fill="#c0c0c0" stroke="#c0c0c0" points="540.5052,-406.4132 537.0051,-396.4133 533.5052,-406.4133 540.5052,-406.4132"/>
</g>
<!-- xdg_user_dirs_update_service -->
<g id="node6" class="node">
<title>xdg_user_dirs_update_service</title>
<ellipse fill="none" stroke="#000000" cx="758.0051" cy="-450" rx="124.2781" ry="18"/>
<text text-anchor="middle" x="758.0051" y="-446.3" font-family="Times,serif" font-size="14.00" fill="#000000">xdg_user_dirs_update_service</text>
</g>
<!-- xdg_user_dirs_update_service&#45;&gt;xfce_pre_target -->
<g id="edge5" class="edge">
<title>xdg_user_dirs_update_service&#45;&gt;xfce_pre_target</title>
<path fill="none" stroke="#c0c0c0" d="M707.3032,-433.4817C672.1252,-422.021 625.3764,-406.7907 589.7595,-395.187"/>
<polygon fill="#c0c0c0" stroke="#c0c0c0" points="590.6202,-391.7864 580.0278,-392.0165 588.4517,-398.442 590.6202,-391.7864"/>
</g>
<!-- xrdb_service -->
<g id="node7" class="node">
<title>xrdb_service</title>
<ellipse fill="none" stroke="#000000" cx="959.0051" cy="-450" rx="58.4896" ry="18"/>
<text text-anchor="middle" x="959.0051" y="-446.3" font-family="Times,serif" font-size="14.00" fill="#000000">xrdb_service</text>
</g>
<!-- xrdb_service&#45;&gt;xfce_pre_target -->
<g id="edge6" class="edge">
<title>xrdb_service&#45;&gt;xfce_pre_target</title>
<path fill="none" stroke="#c0c0c0" d="M915.6393,-437.778C907.4911,-435.6932 899.0158,-433.6662 891.0051,-432 794.4127,-411.9091 681.5409,-395.9759 609.6917,-386.7662"/>
<polygon fill="#c0c0c0" stroke="#c0c0c0" points="609.7572,-383.2464 599.3955,-385.4565 608.8738,-390.1904 609.7572,-383.2464"/>
</g>
<!-- syndaemon_service&#45;&gt;xfce_pre_target -->
<g id="edge7" class="edge">
<title>syndaemon_service&#45;&gt;xfce_pre_target</title>
<path fill="none" stroke="#c0c0c0" d="M396.1748,-434.0209C423.7783,-423.0405 460.5414,-408.4165 489.5842,-396.8635"/>
<polygon fill="#c0c0c0" stroke="#c0c0c0" points="491.1151,-400.0214 499.1132,-393.073 488.5277,-393.5171 491.1151,-400.0214"/>
</g>
<!-- xfce4_session_service&#45;&gt;xfce_init_target -->
<g id="edge8" class="edge">
<title>xfce4_session_service&#45;&gt;xfce_init_target</title>
<path fill="none" stroke="#c0c0c0" d="M436.0426,-289.7963C419.9158,-281.1533 403.1032,-268.7734 394.0051,-252 386.3764,-237.9357 385.7522,-229.7073 394.0051,-216 404.1702,-199.1166 421.5807,-187.2355 439.1688,-179.005"/>
<polygon fill="#c0c0c0" stroke="#c0c0c0" points="440.5623,-182.2157 448.3449,-175.0267 437.7778,-175.7933 440.5623,-182.2157"/>
</g>
<!-- xfce4_session_service&#45;&gt;xfce4_session_set_SESSIONMANAGER_var_service -->
<g id="edge10" class="edge">
<title>xfce4_session_service&#45;&gt;xfce4_session_set_SESSIONMANAGER_var_service</title>
<path fill="none" stroke="#c0c0c0" d="M510.0633,-289.1192C529.2075,-279.3434 553.5409,-266.9179 574.2562,-256.3398"/>
<polygon fill="#c0c0c0" stroke="#c0c0c0" points="575.8722,-259.4447 583.1865,-251.7797 572.6887,-253.2104 575.8722,-259.4447"/>
</g>
<!-- xfce4_session_set_SESSIONMANAGER_var_service&#45;&gt;xfce_init_target -->
<g id="edge9" class="edge">
<title>xfce4_session_set_SESSIONMANAGER_var_service&#45;&gt;xfce_init_target</title>
<path fill="none" stroke="#c0c0c0" d="M587.534,-216.0171C570.9462,-206.2275 550.3002,-194.0431 532.8174,-183.7253"/>
<polygon fill="#c0c0c0" stroke="#c0c0c0" points="534.3925,-180.5908 524.0015,-178.5225 530.8347,-186.6193 534.3925,-180.5908"/>
</g>
<!-- xfsettingsd_service&#45;&gt;xfce_init_target -->
<g id="edge11" class="edge">
<title>xfsettingsd_service&#45;&gt;xfce_init_target</title>
<path fill="none" stroke="#c0c0c0" d="M773.8123,-295.6745C799.5698,-288.0764 826.5087,-274.8886 842.0051,-252 850.9751,-238.7509 852.41,-228.1547 842.0051,-216 824.6308,-195.7039 667.9871,-177.8205 571.5207,-168.6055"/>
<polygon fill="#c0c0c0" stroke="#c0c0c0" points="571.7989,-165.1163 561.514,-167.66 571.1404,-172.0852 571.7989,-165.1163"/>
</g>
<!-- xfsettingsd_service&#45;&gt;xfce4_session_set_SESSIONMANAGER_var_service -->
<g id="edge12" class="edge">
<title>xfsettingsd_service&#45;&gt;xfce4_session_set_SESSIONMANAGER_var_service</title>
<path fill="none" stroke="#c0c0c0" d="M685.4607,-288.5708C674.2352,-279.4896 660.326,-268.2372 648.0595,-258.3137"/>
<polygon fill="#c0c0c0" stroke="#c0c0c0" points="650.2564,-255.589 640.2805,-252.0206 645.8537,-261.0312 650.2564,-255.589"/>
</g>
<!-- xfwm4_service&#45;&gt;xfce_target -->
<g id="edge13" class="edge">
<title>xfwm4_service&#45;&gt;xfce_target</title>
<path fill="none" stroke="#c0c0c0" d="M135.0141,-77.779C143.9777,-75.7401 153.2506,-73.7288 162.0051,-72 258.2009,-53.0038 370.9598,-35.8206 437.7788,-26.1633"/>
<polygon fill="#c0c0c0" stroke="#c0c0c0" points="438.2979,-29.6247 447.6975,-24.7362 437.301,-22.696 438.2979,-29.6247"/>
</g>
<!-- thunar_service&#45;&gt;xfce_target -->
<g id="edge14" class="edge">
<title>thunar_service&#45;&gt;xfce_target</title>
<path fill="none" stroke="#c0c0c0" d="M282.1883,-77.2108C328.0994,-64.497 398.3242,-45.0501 445.6452,-31.9458"/>
<polygon fill="#c0c0c0" stroke="#c0c0c0" points="446.6752,-35.2924 455.3784,-29.2505 444.807,-28.5463 446.6752,-35.2924"/>
</g>
<!-- xfce4_panel_service&#45;&gt;xfce_target -->
<g id="edge15" class="edge">
<title>xfce4_panel_service&#45;&gt;xfce_target</title>
<path fill="none" stroke="#c0c0c0" d="M427.0336,-72.5708C439.0291,-63.0799 454.0218,-51.2175 466.9621,-40.9791"/>
<polygon fill="#c0c0c0" stroke="#c0c0c0" points="469.4466,-43.4764 475.1171,-34.5267 465.1032,-37.9868 469.4466,-43.4764"/>
</g>
<!-- xfdesktop_service&#45;&gt;xfce_target -->
<g id="edge16" class="edge">
<title>xfdesktop_service&#45;&gt;xfce_target</title>
<path fill="none" stroke="#c0c0c0" d="M564.9765,-72.5708C552.981,-63.0799 537.9883,-51.2175 525.0481,-40.9791"/>
<polygon fill="#c0c0c0" stroke="#c0c0c0" points="526.9069,-37.9868 516.893,-34.5267 522.5635,-43.4764 526.9069,-37.9868"/>
</g>
<!-- xfce4_notifyd_service&#45;&gt;xfce_target -->
<g id="edge17" class="edge">
<title>xfce4_notifyd_service&#45;&gt;xfce_target</title>
<path fill="none" stroke="#c0c0c0" d="M720.8159,-75.6028C670.3201,-62.6644 596.768,-43.8183 547.7021,-31.2462"/>
<polygon fill="#c0c0c0" stroke="#c0c0c0" points="548.4812,-27.8328 537.9253,-28.7411 546.7437,-34.6138 548.4812,-27.8328"/>
</g>
<!-- xfce4_power_manager_service&#45;&gt;xfce_target -->
<g id="edge18" class="edge">
<title>xfce4_power_manager_service&#45;&gt;xfce_target</title>
<path fill="none" stroke="#c0c0c0" d="M924.3054,-77.4174C817.8461,-62.6485 644.4316,-38.591 554.4001,-26.101"/>
<polygon fill="#c0c0c0" stroke="#c0c0c0" points="554.7571,-22.6171 544.3709,-24.7097 553.7951,-29.5507 554.7571,-22.6171"/>
</g>
<!-- tumbler_service&#45;&gt;xfce_target -->
<g id="edge19" class="edge">
<title>tumbler_service&#45;&gt;xfce_target</title>
<path fill="none" stroke="#c0c0c0" d="M1178.637,-77.4053C1169.1695,-75.3566 1159.3194,-73.4383 1150.0051,-72 934.1474,-38.6688 674.8144,-24.9754 558.1801,-20.1999"/>
<polygon fill="#c0c0c0" stroke="#c0c0c0" points="558.1472,-16.6958 548.0148,-19.7916 557.8662,-23.6902 558.1472,-16.6958"/>
</g>
</g>
</svg>
